<?xml version="1.0" standalone="no"?>
<!DOCTYPE svg PUBLIC "-//W3C//DTD SVG 20010904//EN"
 "http://www.w3.org/TR/2001/REC-SVG-20010904/DTD/svg10.dtd">
<svg version="1.0" xmlns="http://www.w3.org/2000/svg"
 width="151.000000pt" height="151.000000pt" viewBox="0 0 151.000000 151.000000"
 preserveAspectRatio="xMidYMid meet">

<g transform="translate(0.000000,151.000000) scale(0.100000,-0.100000)"
fill="#000000" stroke="none">
<path d="M620 1315 c-271 -61 -465 -292 -478 -568 -6 -125 9 -201 60 -307 74
-153 230 -282 394 -324 91 -24 245 -21 330 5 310 94 496 407 429 722 -44 209
-214 395 -418 459 -83 26 -233 32 -317 13z m308 -64 c347 -117 494 -517 308
-835 -63 -108 -190 -205 -322 -246 -80 -24 -222 -27 -304 -5 -193 51 -354 212
-405 405 -19 71 -19 210 0 283 40 154 154 295 298 369 119 60 296 72 425 29z"/>
<path d="M656 1007 c-44 -25 -72 -59 -82 -99 -6 -27 -5 -28 34 -28 35 0 41 4
52 30 35 85 169 75 185 -13 9 -46 -6 -76 -71 -146 -55 -59 -58 -66 -62 -122
l-4 -59 41 0 41 0 0 48 c0 44 4 51 60 110 66 71 85 115 76 174 -14 85 -73 128
-173 128 -41 0 -69 -7 -97 -23z"/>
<path d="M722 484 c-43 -30 -21 -94 32 -94 22 0 46 28 46 55 0 20 -32 55 -50
55 -3 0 -16 -7 -28 -16z"/>
</g>
</svg>
