<?xml version="1.0" standalone="no"?>
<!DOCTYPE svg PUBLIC "-//W3C//DTD SVG 20010904//EN"
 "http://www.w3.org/TR/2001/REC-SVG-20010904/DTD/svg10.dtd">
<svg version="1.0" xmlns="http://www.w3.org/2000/svg"
 width="154.000000pt" height="153.000000pt" viewBox="0 0 154.000000 153.000000"
 preserveAspectRatio="xMidYMid meet">

<g transform="translate(0.000000,153.000000) scale(0.100000,-0.100000)"
fill="#000000" stroke="none">
<path d="M275 1363 c-34 -9 -63 -33 -79 -68 -14 -29 -16 -98 -16 -544 0 -565
0 -563 62 -601 32 -19 49 -20 558 -20 400 0 531 3 550 13 13 7 35 28 47 46
l23 34 0 519 c0 588 2 575 -72 608 -41 19 -68 20 -548 19 -278 -1 -514 -4
-525 -6z m1042 -53 c17 -6 35 -22 42 -36 8 -18 11 -175 11 -535 l0 -510 -25
-24 -24 -25 -521 0 -521 0 -24 25 -25 24 0 513 c0 556 -1 546 54 568 31 13
996 12 1033 0z"/>
<path d="M685 1205 c-201 -54 -338 -250 -322 -459 13 -170 119 -315 274 -377
48 -19 77 -23 169 -24 107 0 112 1 185 37 93 46 168 122 212 215 30 64 32 74
32 183 0 108 -2 119 -32 182 -93 197 -311 299 -518 243z m236 -55 c117 -36
222 -142 256 -259 23 -80 14 -199 -19 -273 -37 -79 -107 -151 -185 -190 -53
-26 -80 -32 -148 -36 -173 -9 -307 72 -382 234 -24 52 -28 71 -28 154 0 87 3
101 33 162 90 183 282 268 473 208z"/>
<path d="M780 900 l0 -170 125 0 125 0 0 25 0 25 -100 0 -100 0 0 145 0 145
-25 0 -25 0 0 -170z"/>
</g>
</svg>
