<?xml version="1.0" standalone="no"?>
<!DOCTYPE svg PUBLIC "-//W3C//DTD SVG 20010904//EN"
 "http://www.w3.org/TR/2001/REC-SVG-20010904/DTD/svg10.dtd">
<svg version="1.0" xmlns="http://www.w3.org/2000/svg"
 width="163.000000pt" height="163.000000pt" viewBox="0 0 163.000000 163.000000"
 preserveAspectRatio="xMidYMid meet">

<g transform="translate(0.000000,163.000000) scale(0.100000,-0.100000)"
fill="#000000" stroke="none">
<path d="M170 866 l0 -465 27 -3 c24 -3 29 -11 51 -83 13 -44 27 -84 31 -88 6
-6 1098 148 1189 168 l22 5 0 465 0 465 -660 0 -660 0 0 -464z m1270 -1 l0
-415 -610 0 -610 0 0 415 0 415 610 0 610 0 0 -415z m-315 -471 c-15 -6 -763
-114 -790 -114 -19 0 -26 9 -39 47 -9 26 -16 53 -16 60 0 11 79 13 428 12 235
0 423 -2 417 -5z"/>
<path d="M1159 891 c-64 -65 -20 -171 71 -171 78 0 123 78 89 153 -25 54 -114
64 -160 18z m115 -27 c36 -35 7 -104 -42 -104 -54 0 -81 62 -45 102 20 22 66
24 87 2z"/>
</g>
</svg>
