<svg id="グループ化_61" data-name="グループ化 61" xmlns="http://www.w3.org/2000/svg" width="157.461" height="57.863" viewBox="0 0 157.461 57.863">
  <g id="グループ化_56" data-name="グループ化 56">
    <g id="グループ化_55" data-name="グループ化 55">
      <g id="グループ化_54" data-name="グループ化 54">
        <path id="パス_47" data-name="パス 47" d="M143.675,0H13.793c-.531,0-1.055,0-1.584,0-.443,0-.882.012-1.329.019a19.03,19.03,0,0,0-2.9.255,9.721,9.721,0,0,0-2.75.907A9.322,9.322,0,0,0,2.89,2.889,9.091,9.091,0,0,0,1.185,5.234a9.583,9.583,0,0,0-.9,2.753,18.918,18.918,0,0,0-.259,2.9c-.013.444-.014.89-.022,1.332V45.652c.007.448.009.884.022,1.332a18.886,18.886,0,0,0,.259,2.9,9.558,9.558,0,0,0,.9,2.756A9.016,9.016,0,0,0,2.89,54.971a9.113,9.113,0,0,0,2.341,1.705,9.685,9.685,0,0,0,2.75.911,19.218,19.218,0,0,0,2.9.256c.447.01.887.016,1.329.016.529,0,1.053,0,1.584,0H143.675c.521,0,1.049,0,1.568,0,.441,0,.893-.006,1.334-.016a18.963,18.963,0,0,0,2.893-.256,9.809,9.809,0,0,0,2.76-.911,9.113,9.113,0,0,0,2.341-1.705,9.267,9.267,0,0,0,1.708-2.335,9.539,9.539,0,0,0,.9-2.756,19.647,19.647,0,0,0,.269-2.9c.006-.448.006-.884.006-1.332.012-.527.012-1.049.012-1.583V13.794c0-.529,0-1.055-.012-1.58,0-.443,0-.888-.006-1.332a19.683,19.683,0,0,0-.269-2.9,9.564,9.564,0,0,0-.9-2.753,9.345,9.345,0,0,0-4.049-4.05,9.846,9.846,0,0,0-2.76-.907,18.78,18.78,0,0,0-2.893-.255c-.441-.007-.893-.016-1.334-.019-.519,0-1.047,0-1.568,0Z" fill="#a2a2a2"/>
        <path id="パス_48" data-name="パス 48" d="M11.826,56.206c-.441,0-.871-.006-1.308-.016a18.253,18.253,0,0,1-2.705-.236,8.484,8.484,0,0,1-2.4-.793A7.773,7.773,0,0,1,3.4,53.692,7.709,7.709,0,0,1,1.92,51.671a8.32,8.32,0,0,1-.785-2.4,17.92,17.92,0,0,1-.24-2.712c-.01-.305-.022-1.321-.022-1.321V11.824s.013-1,.022-1.293a17.865,17.865,0,0,1,.239-2.708,8.282,8.282,0,0,1,.787-2.4A7.721,7.721,0,0,1,3.389,3.4a8.054,8.054,0,0,1,2.028-1.48A8.417,8.417,0,0,1,7.808,1.13,18.3,18.3,0,0,1,10.522.892l1.3-.017h133.02l1.321.019a17.9,17.9,0,0,1,2.689.234,8.641,8.641,0,0,1,2.417.793,8.111,8.111,0,0,1,3.493,3.5,8.344,8.344,0,0,1,.774,2.385,18.949,18.949,0,0,1,.252,2.73c0,.409,0,.851,0,1.287.012.542.012,1.059.012,1.58V43.679c0,.525,0,1.039-.012,1.555,0,.47,0,.9-.006,1.345a18.566,18.566,0,0,1-.247,2.68,8.318,8.318,0,0,1-.781,2.416,7.926,7.926,0,0,1-1.47,2,7.811,7.811,0,0,1-2.024,1.478,8.451,8.451,0,0,1-2.413.8,18.056,18.056,0,0,1-2.7.236c-.424.01-.868.016-1.3.016l-1.568,0Z" transform="translate(0.39 0.391)"/>
      </g>
    </g>
  </g>
  <g id="グループ化_57" data-name="グループ化 57" transform="translate(49.801 12.471)">
    <path id="パス_49" data-name="パス 49" d="M44.177,20.019h-5.86l-1.408,4.156H34.427L39.977,8.8h2.579l5.552,15.377H45.584ZM38.923,18.1h4.646l-2.29-6.745h-.065Z" transform="translate(-34.427 -8.542)" fill="#fff"/>
    <path id="パス_50" data-name="パス 50" d="M55.433,17.32c0,3.483-1.865,5.723-4.678,5.723a3.8,3.8,0,0,1-3.528-1.962h-.052v5.552h-2.3V11.714H47.1v1.865h.042A3.975,3.975,0,0,1,50.711,11.6C53.557,11.6,55.433,13.846,55.433,17.32Zm-2.365,0c0-2.27-1.173-3.761-2.963-3.761-1.759,0-2.941,1.523-2.941,3.761,0,2.26,1.182,3.771,2.941,3.771C51.895,21.091,53.068,19.61,53.068,17.32Z" transform="translate(-29.762 -7.292)" fill="#fff"/>
    <path id="パス_51" data-name="パス 51" d="M63.963,17.32c0,3.483-1.866,5.723-4.68,5.723a3.8,3.8,0,0,1-3.527-1.962H55.7v5.552H53.4V11.714H55.63v1.865h.042a3.977,3.977,0,0,1,3.57-1.982C62.087,11.6,63.963,13.846,63.963,17.32Zm-2.367,0c0-2.27-1.173-3.761-2.963-3.761-1.758,0-2.941,1.523-2.941,3.761,0,2.26,1.183,3.771,2.941,3.771C60.424,21.091,61.6,19.61,61.6,17.32Z" transform="translate(-25.953 -7.292)" fill="#fff"/>
    <path id="パス_52" data-name="パス 52" d="M67.066,19.969c.171,1.525,1.652,2.526,3.676,2.526,1.94,0,3.336-1,3.336-2.375,0-1.193-.842-1.908-2.835-2.4l-1.992-.48c-2.824-.681-4.134-2-4.134-4.144,0-2.653,2.312-4.476,5.594-4.476,3.25,0,5.477,1.823,5.552,4.476H73.939c-.139-1.535-1.408-2.461-3.261-2.461s-3.122.937-3.122,2.3c0,1.088.81,1.727,2.792,2.218l1.694.415c3.155.746,4.464,2.014,4.464,4.263,0,2.876-2.29,4.678-5.935,4.678-3.41,0-5.711-1.759-5.86-4.541Z" transform="translate(-20.903 -8.621)" fill="#fff"/>
    <path id="パス_53" data-name="パス 53" d="M77.517,9.844V12.5h2.131V14.32H77.517V20.5c0,.961.427,1.408,1.363,1.408a7.268,7.268,0,0,0,.758-.054v1.811a6.247,6.247,0,0,1-1.279.107c-2.27,0-3.155-.852-3.155-3.026V14.32H73.575V12.5H75.2V9.844Z" transform="translate(-16.945 -8.075)" fill="#fff"/>
    <path id="パス_54" data-name="パス 54" d="M78.626,17.326c0-3.527,2.077-5.743,5.316-5.743s5.319,2.216,5.319,5.743S87.2,23.07,83.942,23.07,78.626,20.863,78.626,17.326Zm8.29,0c0-2.419-1.11-3.848-2.974-3.848s-2.973,1.439-2.973,3.848c0,2.43,1.108,3.846,2.973,3.846S86.916,19.756,86.916,17.326Z" transform="translate(-14.689 -7.298)" fill="#fff"/>
    <path id="パス_55" data-name="パス 55" d="M87.289,11.714h2.194v1.908h.054a2.673,2.673,0,0,1,2.7-2.025,3.575,3.575,0,0,1,.788.085v2.152a3.207,3.207,0,0,0-1.034-.139,2.318,2.318,0,0,0-2.4,2.579v6.65h-2.3Z" transform="translate(-10.821 -7.292)" fill="#fff"/>
    <path id="パス_56" data-name="パス 56" d="M101.707,19.637c-.31,2.035-2.291,3.433-4.827,3.433-3.261,0-5.284-2.186-5.284-5.691s2.034-5.8,5.187-5.8c3.1,0,5.053,2.131,5.053,5.529V17.9H93.918v.139a2.92,2.92,0,0,0,3.016,3.175,2.535,2.535,0,0,0,2.589-1.577Zm-7.778-3.344h5.6a2.7,2.7,0,0,0-2.75-2.845A2.837,2.837,0,0,0,93.929,16.293Z" transform="translate(-8.897 -7.298)" fill="#fff"/>
  </g>
  <g id="グループ化_58" data-name="グループ化 58" transform="translate(49.739 33.812)">
    <path id="パス_57" data-name="パス 57" d="M37.354,33.9l.094-1.186a4.554,4.554,0,0,0,1.376.22c.422,0,.586-.042.791-.328a6.619,6.619,0,0,0,.625-3.349c0-1.227-.38-1.581-1.347-1.581-.218,0-.464.014-.736.027a19.828,19.828,0,0,1-2.56,5.964l-1.131-.612a16.018,16.018,0,0,0,2.384-5.231,20,20,0,0,0-2.219.369L34.384,27c.832-.149,1.826-.285,2.751-.367a25.812,25.812,0,0,0,.422-2.737l1.335.149c-.123.83-.273,1.664-.464,2.479h.531c1.73,0,2.56.858,2.56,2.682a8.448,8.448,0,0,1-.788,4.045,1.673,1.673,0,0,1-1.635.872A7.538,7.538,0,0,1,37.354,33.9Zm4.385-7.341.994-.668a7.667,7.667,0,0,1,2.329,5.041l-1.308.2A6.366,6.366,0,0,0,41.738,26.561Z" transform="translate(-34.384 -23.143)" fill="#fff"/>
    <path id="パス_58" data-name="パス 58" d="M45.556,34.1l-.272-1.225c.34.027.79.041,1.062.041,2.7,0,3.718-.761,3.718-1.894,0-.9-.586-1.415-1.894-1.415a5.837,5.837,0,0,0-3.731,1.826l-1.049-.464c0-2.6.272-3.8,1.157-5.106l1.212.395A5.333,5.333,0,0,0,44.725,29.8a6.954,6.954,0,0,1,3.718-1.267c1.826,0,2.955.939,2.955,2.465,0,1.934-1.526,3.119-5.189,3.119C46.031,34.119,45.774,34.1,45.556,34.1Zm-1.267-9.042.341-1.2a37.535,37.535,0,0,1,5.352,1.227l-.327,1.185A30.664,30.664,0,0,0,44.288,25.062Z" transform="translate(-30.362 -23.156)" fill="#fff"/>
    <path id="パス_59" data-name="パス 59" d="M52.161,33.384a8.609,8.609,0,0,0,3.664-2.371A15.56,15.56,0,0,0,53.277,29.3l.749-.94a16.635,16.635,0,0,1,2.586,1.633,8.584,8.584,0,0,0,1.335-3.146H54.475a14.037,14.037,0,0,1-2.968,3.42l-.994-.858A12.9,12.9,0,0,0,54.3,24.2l1.308.314c-.149.382-.3.775-.476,1.144h3.378l.966.45c-.694,3.922-2.97,7.066-6.524,8.334Zm5.747-9.505.762-.369a8.117,8.117,0,0,1,.968,1.675l-.858.395A7.477,7.477,0,0,0,57.908,23.879Zm1.7-.137.775-.367a9.225,9.225,0,0,1,1,1.717l-.858.366A7.549,7.549,0,0,0,59.61,23.741Z" transform="translate(-27.181 -23.374)" fill="#fff"/>
    <path id="パス_60" data-name="パス 60" d="M61.846,34.16l-.694-1.1c3.65-.885,4.726-3.282,4.794-6.006h-5.72V29.79H58.85v-3.9h3.418v-2h1.376v2h2.547l1.253.356C67.281,30.115,65.987,33.07,61.846,34.16Z" transform="translate(-23.458 -23.143)" fill="#fff"/>
    <path id="パス_61" data-name="パス 61" d="M66.623,25.687l.762-1.118A16.88,16.88,0,0,1,70.734,26.6l-.871,1.17A16.072,16.072,0,0,0,66.623,25.687Zm.257,6.713a10.582,10.582,0,0,0,7.859-5.666l.9,1.01A11.521,11.521,0,0,1,67.4,33.666Z" transform="translate(-19.987 -22.84)" fill="#fff"/>
    <path id="パス_62" data-name="パス 62" d="M83.216,32.938H74.649V24.833h8.567ZM76,26.086v5.6h5.854v-5.6Z" transform="translate(-16.403 -22.722)" fill="#fff"/>
    <path id="パス_63" data-name="パス 63" d="M92.021,28.35H82.393V26.961h9.628Z" transform="translate(-12.945 -21.772)" fill="#fff"/>
    <path id="パス_64" data-name="パス 64" d="M91.314,23.991h1.348v3.486a42.058,42.058,0,0,1,5.2,2.6l-.762,1.2A32.925,32.925,0,0,0,92.662,28.9v5.255H91.314Zm3.2.736.8-.382a8.992,8.992,0,0,1,.968,1.852l-.887.4A7.9,7.9,0,0,0,94.514,24.728Zm1.552-.587.819-.38a8.881,8.881,0,0,1,1.021,1.852l-.887.395A8.825,8.825,0,0,0,96.066,24.14Z" transform="translate(-8.961 -23.202)" fill="#fff"/>
  </g>
  <g id="グループ化_60" data-name="グループ化 60" transform="translate(14.425 12.614)">
    <g id="グループ化_59" data-name="グループ化 59">
      <path id="パス_65" data-name="パス 65" d="M31.377,23.127a7.157,7.157,0,0,1,3.408-6.006A7.324,7.324,0,0,0,29.012,14c-2.429-.255-4.784,1.454-6.022,1.454-1.261,0-3.167-1.429-5.219-1.386a7.687,7.687,0,0,0-6.47,3.945c-2.8,4.845-.71,11.963,1.969,15.879,1.341,1.917,2.908,4.058,4.959,3.982,2.006-.084,2.756-1.28,5.177-1.28,2.4,0,3.1,1.28,5.195,1.232,2.154-.036,3.509-1.927,4.8-3.862a15.848,15.848,0,0,0,2.2-4.473A6.916,6.916,0,0,1,31.377,23.127Z" transform="translate(-9.972 -6.374)" fill="#fff"/>
      <path id="パス_66" data-name="パス 66" d="M23.494,13.77a7.051,7.051,0,0,0,1.613-5.05,7.174,7.174,0,0,0-4.641,2.4,6.709,6.709,0,0,0-1.655,4.862A5.931,5.931,0,0,0,23.494,13.77Z" transform="translate(-6.04 -8.72)" fill="#fff"/>
    </g>
  </g>
</svg>
