<svg xmlns="http://www.w3.org/2000/svg" width="219.242" height="45.006" viewBox="0 0 219.242 45.006">
  <g id="グループ化_444" data-name="グループ化 444" transform="translate(-310.952 84.857)">
    <path id="パス_119" data-name="パス 119" d="M311.889-61.136s2.08-21.187,22.814-21.187S353.77-60.884,353.77-60.884,347.6-41.476,335.378-40.231s-17.72-4.981-19.547-8.375l8.929-5.848,10.592-9.5-4.046,1.824-16.812,3.392Z" fill="#fff"/>
    <path id="パス_1" data-name="パス 1" d="M342.6-43.05c0,.226-.451.226-.451.339-.113.226-.564.339-.79.451a2.774,2.774,0,0,0-1.016.451,4.179,4.179,0,0,1-2.032.9,2.694,2.694,0,0,1-1.354.339c-.226-.113-.677.226-.9.226-.226.113-.451,0-.677.113h-.451c-.113,0-.226-.113-.339,0-.113,0-.226.113-.339.113H333.23a2.47,2.47,0,0,0-.9.113h-.9c-.226,0-.451.113-.677.113a1.861,1.861,0,0,1-1.129-.113h-.564a2.491,2.491,0,0,1-.9-.113c-.113,0-.226-.113-.339-.113h-.339c-.226-.113-.79-.113-1.016-.226-.339-.113-.677-.113-1.016-.226s-.677-.113-.9-.226a12.379,12.379,0,0,0-1.806-.79c-.113-.113-.339-.113-.451-.226l-.339-.339a2.83,2.83,0,0,0-.79-.451c-.339-.113-.677-.451-1.016-.564a3.876,3.876,0,0,1-1.242-.113c-.339-.113-.564-.113-.79-.339s-.451-.677-.79-.79a2.478,2.478,0,0,1-1.016-1.129c0-.113,0-.113-.113-.226a1.814,1.814,0,0,0-.451-.79c-.226-.226-.339-.564-.564-.79a1.282,1.282,0,0,1-.339-.9c0-.451-.677-.564-.339-1.016v-.113a2.371,2.371,0,0,1,.339-.79c.113-.226.339-.226.564-.226s.564,0,.677-.113a3.912,3.912,0,0,1,.9-.564c.339-.113.451-.339.79-.451.564-.339,1.129-.564,1.58-.9.339-.339.79-.451,1.129-.79a14.654,14.654,0,0,1,1.693-1.129c1.013-.57,1.913-1.357,2.927-2.034a13.859,13.859,0,0,0,2.145-1.354c.113-.113.226-.339.451-.339.226-.113.339-.113.451-.226a2.47,2.47,0,0,0,.564-.9c.113-.226.564-.677,0-.79H328.6a2.035,2.035,0,0,0-1.129.113,3.868,3.868,0,0,1-1.129.113c-.226,0-.564.113-.677.113-.451-.226-1.129.339-1.58.226a1.62,1.62,0,0,0-.79.226.838.838,0,0,0-.564.113,4.135,4.135,0,0,1-2.032,0h-.224a1.883,1.883,0,0,0-1.354-.113c-.113,0-.226.113-.339.113h-1.129c-.339,0-.79.113-1.016.113h-.113a4,4,0,0,0-1.129.226h-.112a1.914,1.914,0,0,0-.79.113h-1.016a3.107,3.107,0,0,1-1.354.226H311.9c-.339,0-1.016-.677-.79-1.016a5.088,5.088,0,0,0-.113-1.354,3.748,3.748,0,0,1,0-1.129c.113-.226.226-.339.226-.451.113-.226,0-.451,0-.564v-.113a3.039,3.039,0,0,1,0-1.016,2.95,2.95,0,0,1,.568-1.021c.113-.339,0-.677.226-1.016a6.1,6.1,0,0,0,.564-1.242,16.074,16.074,0,0,0,.9-2.032,10.068,10.068,0,0,0,.677-1.129,8.184,8.184,0,0,1,.564-1.016,3.347,3.347,0,0,1,.451-.9c.226-.451.79-.9.9-1.354v-.113c.451-.9.79-1.242,1.016-1.693.113-.339.451-.564.677-.9s.451-.451.677-.79a6.165,6.165,0,0,1,.79-1.016c.451-.564,1.242-.9,1.693-1.58.113-.226.451-.339.564-.451a3.386,3.386,0,0,1,.79-.564,6.7,6.7,0,0,0,.9-.451c.226-.113.339-.564.677-.564l.677-.339c.226-.113.451-.339.677-.451.339-.113.79-.113,1.016-.339.113,0,.339-.113.451-.113l.451-.226a.416.416,0,0,0,.339-.113c.564-.113,1.016-.339,1.467-.451s.9-.113,1.242-.226c.113,0,.113-.113.226-.113a3.8,3.8,0,0,1,1.129-.113,4.937,4.937,0,0,0,.564-.113.111.111,0,0,0,.113-.109v0c.451.113,1.016-.226,1.467-.113.226-.113.564,0,.79,0h.125a2.1,2.1,0,0,0,.79.226c.339-.113.677.226,1.016.226.113,0,.113-.113.226,0,.113,0,.113.113.226.113h.442c.226,0,.451.226.677.226h.113c.113.113.339.113.451.226a1.586,1.586,0,0,1,.677.226c.339.113.677.113,1.016.226.226,0,.339.226.564.339s.339.113.564.226c.451.113.79.339,1.242.451a11.41,11.41,0,0,1,2.822,1.58,10.648,10.648,0,0,1,1.134,1.124c.226.226.339.564.564.677s.451.451.677.677a1.5,1.5,0,0,0,.564.339h.451a.855.855,0,0,1,.451.226c.113.113-.113,0,.113.226.113.113.226.113.339.226.339.113.564.564.79,1.016.226.564.677.9.9,1.467,0,.113.113.226.113.339.113.226.339.226.226.564-.113.451.451,1.129.677,1.467a1.427,1.427,0,0,1,.113.677,1.613,1.613,0,0,1,.226.677c0,.113.113.339.113.451.113.226.339.226.339.451,0,.113,0,.226.113.226,0,.113.113.226.113.339v.113a4.861,4.861,0,0,1,.226,1.354c0,.226-.113.451-.113.677a.243.243,0,0,0,.226.226v.339c.113.226,0,.451,0,.677,0,.113.113.226.113.451,0,.113-.113.339,0,.451,0,.564-.113,1.129-.113,1.58,0,.226.113.564.113.79s-.113.451,0,.564c-.226.339-.113,1.016-.113,1.467v.677a.955.955,0,0,0,0,.79.868.868,0,0,1-.226.564v.677c-.113.339-.113.9-.339,1.129v.113c-.113.226,0,.451-.113.677v.339a2.03,2.03,0,0,1-.451,1.016c-.113.226-.564.79-.564,1.016v.113c0,.113-.226.339-.226.451a4.689,4.689,0,0,0-.113.564c0,.226-.226.451-.226.564-.113.226,0,.339-.226.451,0,.113-.226.339-.226.451-.113.339-.226.451-.339.79-.113.226-.113.339-.226.564a1.591,1.591,0,0,1-.339.451,11.879,11.879,0,0,0-1.129,1.354.932.932,0,0,1-.564.564c-.339.113-.226,0-.451.451-.113.339-.564.564-.79.79a1.121,1.121,0,0,0-.564.451l-.339.339c-.113.113-.339.113-.564.226-.339.226-.451.564-.79.79-.113.113-.79.677-.9.451-.113.113-.113.226-.226.339s-.113,0-.226.113C343.276-43.5,342.6-43.389,342.6-43.05ZM316.189-60.884c.113,0,.339-.113.451-.113h.564c.113,0,.226,0,.226-.113h.226c.339,0,.564.226.9.113.226-.113.339-.113.564-.226h.226c.226,0,.339.113.564,0,.451-.113.79.226,1.242.113a4.591,4.591,0,0,1,1.242-.113c.226,0,.451-.113.564,0,.451-.226.9,0,1.467-.113a7.9,7.9,0,0,1,1.58-.339c.226,0,.451-.113.79-.113a1.515,1.515,0,0,0,1.016-.226c.226,0,.339-.113.564-.113a1.43,1.43,0,0,0,.677-.113h.113c.226.113.451,0,.79.113h.9c.226,0,.339-.113.451,0a4,4,0,0,1,1.129-.226c.113,0,.451-.113.564-.113a1.118,1.118,0,0,1,1.242.9v.451c-.113.226-.339.677-.564.677-.113,0-.226.113-.339.226a1.2,1.2,0,0,1-.451.339c-.451.113-.677.451-1.129.564s-.677.564-1.129.79c-.339.226-.677.339-.79.677s-.564.451-.9.677l-.564.564c-.226.113-.451.339-.677.451a6.824,6.824,0,0,1-1.242.677,2.487,2.487,0,0,1-.567.455h-.339c-.226.113-.564.451-.79.564a3.784,3.784,0,0,1-1.129.677c-.564.339-1.016.79-1.467,1.016l-.675.343c-.113.113-.113.226-.339.226-.339,0-.564.339-.9.564-.226.113-.339.113-.451.226a2.371,2.371,0,0,1-.677.451c-.226.113-.339.339-.564.451.113.339-.226.339-.339.451l-.339.339a.851.851,0,0,1-.564.113c-.226,0-.564.226-.564.451,0,.451.226.677.226,1.129a.413.413,0,0,0,.113.339c.113.113.226,0,.339.113.113.226.451.339.677.564.113.339.226.79.564.9l.226.113a.111.111,0,0,0,.109.113h0c0,.113.113.113.226,0a1.13,1.13,0,0,1,.564.451c.226.226.451.226.677.339s.451.339.677.451c.451.226.79.564,1.242.79a1.5,1.5,0,0,1,.564.339c.226.226.339.339.564.339.451,0,.9.451,1.354.564a2.233,2.233,0,0,0,1.242.226c.226,0,.339.113.564.113.113,0,.113.113.339.113.113-.113.226-.113.226,0,.113,0,.339.113.451.113a1.428,1.428,0,0,0,.677.113,1.916,1.916,0,0,1,.79.113l.113.113h1.467a.345.345,0,0,0,.451,0c.226,0,.339.113.451.113a1.565,1.565,0,0,1,1.016,0,2.348,2.348,0,0,0,1.242-.113h.113a4.079,4.079,0,0,0,1.242-.226h.564c.339-.113.677-.113,1.016-.226.226-.113.564-.113.79-.226a5.165,5.165,0,0,0,.564-.113,12.3,12.3,0,0,0,2.822-1.129c.113,0,.226-.113.339-.113.226-.113.451-.451.677-.564s.564-.113.79-.339c.226-.113.339-.451.677-.564.113,0,.564-.339.564-.451.226-.226.564-.339.79-.564a2,2,0,0,0,.564-.451,5.588,5.588,0,0,1,.9-.79,1.661,1.661,0,0,0,.681-.564c.339-.451.9-.677,1.129-1.129a1.529,1.529,0,0,1,.339-.451l.113-.113c0-.113.113-.339.226-.339.339-.339.451-.79.79-1.129a3.288,3.288,0,0,1,.339-1.129c.113-.339.113-.564.339-.79,0-.113,0-.113.113-.226v-.113c0-.113,0-.226.113-.226a2.27,2.27,0,0,0,.451-.9v-.113a3.694,3.694,0,0,1,.339-.677v-.226c0-.226.113-.339.113-.564,0-.113.226-.339.226-.451v-.451a.861.861,0,0,1,.226-.564c0-.113.113-.226.113-.339s-.113-.226,0-.451v-.339c.113-.226.113-.677.226-1.016V-60.77a2.469,2.469,0,0,1,.113-.9v-.451c-.113-.226,0-.339.113-.564v-1.58c-.113-.226,0-.451,0-.677a2.1,2.1,0,0,0-.226-.79v-.339c.226-.564-.226-1.242-.339-1.919v-.451a5.509,5.509,0,0,0-.339-.79,1.027,1.027,0,0,1-.339-.79,3.332,3.332,0,0,0-.339-1.129,1.819,1.819,0,0,1-.451-.79,4.617,4.617,0,0,0-.226-1.129c-.113-.226-.226-.339-.339-.564-.226-.339-.451-.564-.564-.79s-.339-.339-.451-.564-.113-.339-.226-.451a6.848,6.848,0,0,0-1.129-.79.882.882,0,0,1-.451-.451,1.542,1.542,0,0,0-.451-.339c-.339-.339-.677-.79-1.016-1.129a5.176,5.176,0,0,0-.79-.79c-.226-.226-1.016-.451-1.016-.79s-.564-.339-.79-.451h0a.674.674,0,0,0-.451-.113c-.564-.226-.9-.564-1.242-.564l-.226-.113a2.778,2.778,0,0,1-1.242-.451,2.175,2.175,0,0,0-1.129-.339,1.428,1.428,0,0,1-.677-.113,7.8,7.8,0,0,1-.9-.339c-.451,0-.9-.113-1.354-.113-.226,0-.339-.113-.564-.113-.113,0-.226.113-.451.113a4.728,4.728,0,0,0-.564-.113,3.341,3.341,0,0,1-1.467.226c-.339-.113-.451-.113-.677.113a.916.916,0,0,1-.9.451,2.082,2.082,0,0,0-.79.226c-.226,0-.9.226-1.129.226s-.451.226-.677.339-.451.113-.564.226a2.1,2.1,0,0,1-.79.226c-.113,0-.339-.113-.339,0-.79.113-1.467.9-2.257,1.242-.226,0-.339.113-.451.113s-.677.226-.677.339a.862.862,0,0,1-.451.226,3.635,3.635,0,0,0-1.58.9,2.3,2.3,0,0,1-.677.79c-.113.113-.226.113-.451.339-.339.451-.79.79-1.129,1.242,0,.339-.451.564-.564.79-.226.226-.339.451-.451.564a2.291,2.291,0,0,0-.79.677c-.226.339-.339.9-.564,1.242s-.9.9-.9,1.354v.113c-.113.113-.113.339-.226.451-.113.226-.339.226-.451.451a1.021,1.021,0,0,0-.113.564c-.113.226-.226.339-.226.451,0,.226-.226.339-.226.451a4.691,4.691,0,0,0-.451,1.129,3.577,3.577,0,0,0-.339,1.016v.226c-.113.226-.451.339-.339.677v.113a9.355,9.355,0,0,0-.451,1.693,1.021,1.021,0,0,1-.113.564c0,.226-.226.451-.113.564a1.858,1.858,0,0,0,.226,1.129c.113.226.113.339.451.226a.866.866,0,0,0,.564-.226c.113-.113.339,0,.451-.113.226,0,.339-.113.564-.113h.339c.226,0,.339.113.564,0,.226,0,.339-.113.451-.113-.339.451-.339.451-.226.451Zm11.059-12.528h.9c.113,0,.226-.113.339-.113a1.517,1.517,0,0,0,.79-.677c.226-.226.564-.451.564-.677,0-.113.226-.339.226-.451v-.677c0-.339-.113-.79-.113-1.129a1.433,1.433,0,0,0-.79-1.016,2.953,2.953,0,0,0-1.016-.564h-.9c-.113,0-.226-.113-.226,0a2.633,2.633,0,0,0-2.257,2.257c-.113.226.113.451,0,.79a1.43,1.43,0,0,0,.113.677.588.588,0,0,1,.226.451c.113.226.113.451.339.564.113.113.564.564.677.564C326.458-73.638,326.909-73.412,327.248-73.412Zm-.339-4.628a2.83,2.83,0,0,0-.79.451,1.643,1.643,0,0,0-.564.677c0,.113-.113.113-.113.226v.226c-.113.226.113.339.113.564v.113c.226.226.113.677.226.9.113.113.339.451.451.451s.226.339.339.339c0-.113,0,0,.113,0h.226c.226,0,.339.113.564.113h.451c.564-.226-.339-.451-.564-.564a1.5,1.5,0,0,1-.677-1.129v-.113a.156.156,0,0,1-.006-.221l.006,0v-.339c0-.113,0-.226.113-.226a.926.926,0,0,1,.677-.451c.226,0,.339-.113.451-.113h.113l.339.113a.416.416,0,0,0,.339.113c.226-.113,0-.226,0-.339v-.113c-.113-.226-.226-.451-.451-.451s-.451-.113-.677-.113h-.226A.864.864,0,0,1,326.909-78.04Z" fill="#0d0d0d" fill-rule="evenodd"/>
    <path id="パス_2" data-name="パス 2" d="M495.425-68.9a4.279,4.279,0,0,1-3.273,1.467,4.516,4.516,0,0,1-2.935-1.129,4.517,4.517,0,0,1-1.241-3.273,4.077,4.077,0,0,1,3.853-4.289,3.966,3.966,0,0,1,.436,0,3.877,3.877,0,0,1,4.059,3.686c0,.088.006.176,0,.264A4.67,4.67,0,0,1,495.425-68.9Zm-3.273-5.192c-1.242,0-1.919.9-1.919,2.37,0,1.693,1.016,2.37,2.032,2.37s2.032-.79,1.919-2.483c-.108-1.354-.79-2.257-2.032-2.257Z" fill="#0d0d0d"/>
    <path id="パス_3" data-name="パス 3" d="M504.793-67.656h-2.145v-4.628a2.87,2.87,0,0,0-.226-1.354,1.192,1.192,0,0,0-1.016-.564,1.586,1.586,0,0,0-.677.226c-.9.451-.9,1.467-.9,2.145v4.176h-2.147v-8.127h2.032v.79a3.58,3.58,0,0,1,2.368-1.016,2.454,2.454,0,0,1,1.129.226,2.81,2.81,0,0,1,1.693,3.048v5.079Z" fill="#0d0d0d"/>
    <path id="パス_4" data-name="パス 4" d="M511.114-71.493c0,1.016,0,1.129.113,1.354.113.451.226.79,1.129.79h.564v1.919c-.339,0-.79.113-1.467.113a4.2,4.2,0,0,1-1.58-.226,1.735,1.735,0,0,1-.79-1.693v-5.192h-1.129v-1.354h1.129v-2.935h2.032v2.935h1.806v1.465h-1.807v2.824Z" fill="#0d0d0d"/>
    <path id="パス_5" data-name="パス 5" d="M521.047-67.655H518.9v-4.628a2.87,2.87,0,0,0-.226-1.354,1.192,1.192,0,0,0-1.016-.564,1.586,1.586,0,0,0-.677.226c-.9.451-.9,1.467-.9,2.145v4.176h-2.147V-79.168h2.145v4.063a3.262,3.262,0,0,1,2.257-1.016,2.707,2.707,0,0,1,1.129.226,2.81,2.81,0,0,1,1.693,3.048v5.192Z" fill="#0d0d0d"/>
    <path id="パス_6" data-name="パス 6" d="M529.964-69.236a4.226,4.226,0,0,1-1.016,1.016,4.434,4.434,0,0,1-2.822.9,4.18,4.18,0,0,1-4.293-4.064c0-.112,0-.224,0-.336A3.974,3.974,0,0,1,525.483-76a3.872,3.872,0,0,1,.417-.011,3.89,3.89,0,0,1,3.047,1.354,5.305,5.305,0,0,1,1.016,3.386h-5.982a1.511,1.511,0,0,0,.226.9,2.274,2.274,0,0,0,1.919,1.129,2.4,2.4,0,0,0,1.919-1.016l1.919,1.016Zm-2.257-3.612a1.1,1.1,0,0,0-.451-1.016,1.8,1.8,0,0,0-1.242-.451,1.9,1.9,0,0,0-1.129.339,3.206,3.206,0,0,0-.677,1.129Z" fill="#0d0d0d"/>
    <path id="パス_7" data-name="パス 7" d="M501.52-43.615h-3.16l-2.145-9.933-2.139,9.933h-3.048l-3.052-14.447h2.709l1.919,9.707,2.257-9.707h2.822l2.257,9.707,2.036-9.707h2.7Z" fill="#0d0d0d"/>
    <path id="パス_8" data-name="パス 8" d="M516.87-43.615H505.7V-58.062h10.723v2.37h-7.675v2.822H514.5v2.6H508.74v3.95h8.127Z" fill="#0d0d0d"/>
    <path id="パス_9" data-name="パス 9" d="M524.546-58.062a7.4,7.4,0,0,1,1.58.113c2.257.339,3.273,1.693,3.273,3.5a2.844,2.844,0,0,1-1.467,2.709c-.226.113-.451.113-.677.226.226.113.564.113.79.226A3.467,3.467,0,0,1,530.19-47.9a3.984,3.984,0,0,1-.339,1.58c-1.016,2.709-3.273,2.709-4.853,2.709h-6.547V-58.062ZM521.5-52.531h2.483a2.9,2.9,0,0,0,1.806-.339,1.406,1.406,0,0,0,.79-1.354,1.3,1.3,0,0,0-.677-1.242,2.513,2.513,0,0,0-1.58-.339h-2.935v3.273Zm0,2.37V-46.1h2.709a4.734,4.734,0,0,0,2.032-.226,1.756,1.756,0,0,0,1.016-1.693,3.307,3.307,0,0,0-.226-1.016c-.564-1.016-1.693-1.016-2.709-1.129Z" fill="#0d0d0d"/>
    <path id="パス_10" data-name="パス 10" d="M390.456-53.546H400.5v-6.208h-2.6v-9.255H385.489v-1.468h-7.111v1.467H365.963v9.255h-2.37v6.208H375.67l.113.677-12.642,4.177,3.725,6.208,15.463-6.885,14.9,6.885,4.063-6.434-10.951-3.95Zm-12.078-6.208h-6.207V-62.8h6.208Zm7.111-3.048h6.434v3.048h-6.434Z" fill="#0d0d0d"/>
    <path id="パス_11" data-name="パス 11" d="M456.259-54.224l.564,2.6-4.289.677V-55.8H463.37V-77.471h-5.418v-2.6h-6.885v2.6h-4.741v27.427l-1.693.339,1.016,6.546,12.641-2.6.451,1.806,5.869-.677-2.6-9.933-5.756.339Zm-3.612-17.721h4.4V-69.8h-4.4Zm0,7.788h4.4v2.37h-4.4Z" fill="#0d0d0d"/>
    <path id="パス_12" data-name="パス 12" d="M369.914-70.816h6.659v-1.467H387.18v1.467h6.659v-1.467H400.5v-5.983h-6.656v-1.58H387.18v1.58H376.573v-1.58h-6.659v1.58H363.48v5.982h6.434Z" fill="#0d0d0d"/>
    <path id="パス_13" data-name="パス 13" d="M439.329-71.606h1.016v-6.208h-5.418V-79.62h-6.316v1.693h-5.874v6.321h1.58l.677,4.515h-2.483v6.321h6.208v3.5h-6.1v6.321h6.1v7.788h6.208v-7.788h6.1V-57.27h-6.1v-3.5h6.1v-6.208h-2.711Zm-5.756,0-1.016,4.515h-2.032l-.79-4.515Z" fill="#0d0d0d"/>
    <path id="パス_14" data-name="パス 14" d="M416.529-73.3l3.838-.339-.339-5.869-15.35,1.354.451,5.982,4.966-.451v3.047h-5.643v6.321H410.1v3.386h-4.515V-43.84h15.011V-59.868h-3.95v-3.386h4.4v-6.321h-4.4V-73.3Zm-1.693,23.138h-3.612v-3.725h3.612Z" fill="#0d0d0d"/>
    <path id="パス_15" data-name="パス 15" d="M480.188-64.382l1.58-7.449v-7.224H466.3V-43.5h6.321v-4.176h9.255v-8.8Zm-3.5,9.481h-3.95V-72.734h3.838l-1.919,8.579Z" fill="#0d0d0d"/>
    <circle id="楕円形_1" data-name="楕円形 1" cx="1.58" cy="1.58" r="1.58" transform="translate(487.863 -64.495)" fill="#7b111a"/>
    <circle id="楕円形_2" data-name="楕円形 2" cx="1.58" cy="1.58" r="1.58" transform="translate(494.409 -64.495)" fill="#7b111a"/>
    <circle id="楕円形_3" data-name="楕円形 3" cx="1.58" cy="1.58" r="1.58" transform="translate(500.956 -64.495)" fill="#7b111a"/>
    <circle id="楕円形_4" data-name="楕円形 4" cx="1.58" cy="1.58" r="1.58" transform="translate(507.502 -64.495)" fill="#7b111a"/>
    <circle id="楕円形_5" data-name="楕円形 5" cx="1.58" cy="1.58" r="1.58" transform="translate(514.049 -64.495)" fill="#7b111a"/>
    <circle id="楕円形_6" data-name="楕円形 6" cx="1.58" cy="1.58" r="1.58" transform="translate(520.482 -64.495)" fill="#7b111a"/>
    <circle id="楕円形_7" data-name="楕円形 7" cx="1.58" cy="1.58" r="1.58" transform="translate(527.029 -64.495)" fill="#7b111a"/>
  </g>
</svg>
