<svg id="グループ化_562" data-name="グループ化 562" xmlns="http://www.w3.org/2000/svg" width="90" height="36" viewBox="0 0 90 36">
  <defs>
    <style>
      text {
        font-family: "Arial", "Arial New", "Hiragino Kaku Gothic Pro", Meiryo, "メイリオ", "ヒラギノ角ゴ Pro W3", Sans-Serif;
      }
    </style>
  </defs>
  <rect id="長方形_532" data-name="長方形 532" width="90" height="36" rx="2" fill="#961e21"/>
  <text id="検索" transform="translate(44.333 23.638)" fill="#fff" font-size="13"><tspan x="0" y="0">検索</tspan></text>
  <path id="パス_115" data-name="パス 115" d="M-615.428,15.85l-3.57-3.57a.859.859,0,0,0-.609-.251h-.584a7.411,7.411,0,0,0,1.575-4.583A7.446,7.446,0,0,0-626.062,0a7.446,7.446,0,0,0-7.447,7.447,7.446,7.446,0,0,0,7.447,7.447,7.411,7.411,0,0,0,4.583-1.575V13.9a.859.859,0,0,0,.251.609l3.57,3.57a.856.856,0,0,0,1.214,0l1.013-1.013A.863.863,0,0,0-615.428,15.85Zm-10.634-3.82a4.58,4.58,0,0,1-4.583-4.583,4.58,4.58,0,0,1,4.583-4.583,4.58,4.58,0,0,1,4.583,4.583A4.58,4.58,0,0,1-626.062,12.03Z" transform="translate(650.509 10.056)" fill="#fff"/>
</svg>
