<svg xmlns="http://www.w3.org/2000/svg" width="32" height="32" viewBox="0 0 32 32">
  <path id="パス_1333" data-name="パス 1333" d="M79.278,197.715a4.809,4.809,0,0,0-4.867,4.867v22.333a4.8,4.8,0,0,0,4.867,4.8h22.333a4.78,4.78,0,0,0,4.8-4.8V202.582a4.8,4.8,0,0,0-4.8-4.867Zm11.867,6.267c2.667,0,5.6,3.267,5.6,5.467v.867a1.159,1.159,0,0,0,1.133,1.067h1.467a1.229,1.229,0,0,1,1,1.2v5.067a6.323,6.323,0,0,1-6.067,5.933H87.144a6.4,6.4,0,0,1-6.467-6v-7.733a6.238,6.238,0,0,1,6.067-5.867h4.4Zm-4.2,5.067c-1.533.067-1.8,2.267.133,2.333h3.6c1.467-.067,1.267-2.267.067-2.333Zm-.267,7.133a1.142,1.142,0,0,0,0,2.267h7.4a1.134,1.134,0,0,0,0-2.267Z" transform="translate(-74.411 -197.715)" fill="#fff"/>
</svg>
