<?xml version="1.0" encoding="utf-8"?>
<!-- Generator: Adobe Illustrator 26.3.1, SVG Export Plug-In . SVG Version: 6.00 Build 0)  -->
<svg version="1.1" id="レイヤー_1" xmlns="http://www.w3.org/2000/svg" xmlns:xlink="http://www.w3.org/1999/xlink" x="0px"
	 y="0px" viewBox="0 0 48 48" style="enable-background:new 0 0 48 48;" xml:space="preserve">
<style type="text/css">
	.st0{fill:#FFFFFF;}
</style>
<path class="st0" d="M41.4,21.9c0-7.8-7.8-14.2-17.5-14.2c-9.6,0-17.5,6.4-17.5,14.2c0,7,6.2,12.9,14.6,14c0.6,0.1,1.3,0.4,1.5,0.9
	c0.2,0.4,0.1,1.1,0.1,1.6c0,0-0.2,1.2-0.2,1.5c-0.1,0.4-0.4,1.7,1.5,0.9C25.8,40,34,34.8,37.7,30.6h0C40.2,27.8,41.4,25,41.4,21.9z
	 M17.8,26.1c0,0.2-0.2,0.3-0.3,0.3h-4.9h0c-0.1,0-0.2,0-0.2-0.1c0,0,0,0,0,0c0,0,0,0,0,0c-0.1-0.1-0.1-0.1-0.1-0.2v0v-7.6
	c0-0.2,0.2-0.3,0.3-0.3h1.2c0.2,0,0.3,0.2,0.3,0.3v6h3.3c0.2,0,0.3,0.2,0.3,0.3V26.1z M20.7,26.1c0,0.2-0.2,0.3-0.3,0.3h-1.2
	c-0.2,0-0.3-0.2-0.3-0.3v-7.6c0-0.2,0.2-0.3,0.3-0.3h1.2c0.2,0,0.3,0.2,0.3,0.3V26.1z M29.1,26.1c0,0.2-0.2,0.3-0.3,0.3h-1.2
	c0,0-0.1,0-0.1,0c0,0,0,0,0,0c0,0,0,0,0,0c0,0,0,0,0,0c0,0,0,0,0,0c0,0,0,0,0,0c0,0,0,0,0,0c0,0,0,0,0,0c0,0,0,0,0,0
	c0,0-0.1,0-0.1-0.1l-3.5-4.7v4.5c0,0.2-0.2,0.3-0.3,0.3h-1.2c-0.2,0-0.3-0.2-0.3-0.3v-7.6c0-0.2,0.2-0.3,0.3-0.3h1.2c0,0,0,0,0,0
	c0,0,0,0,0,0c0,0,0,0,0,0c0,0,0,0,0,0c0,0,0,0,0,0c0,0,0,0,0,0c0,0,0,0,0,0c0,0,0,0,0,0c0,0,0,0,0,0c0,0,0,0,0,0c0,0,0,0,0,0
	c0,0,0,0,0,0c0,0,0,0,0,0c0,0,0,0,0,0c0,0,0,0,0,0c0,0,0,0,0,0c0,0,0,0,0,0c0,0,0,0,0,0c0,0,0,0,0,0l3.5,4.7v-4.5
	c0-0.2,0.2-0.3,0.3-0.3h1.2c0.2,0,0.3,0.2,0.3,0.3V26.1z M35.9,19.7c0,0.2-0.2,0.3-0.3,0.3h-3.3v1.3h3.3c0.2,0,0.3,0.2,0.3,0.3v1.2
	c0,0.2-0.2,0.3-0.3,0.3h-3.3v1.3h3.3c0.2,0,0.3,0.2,0.3,0.3v1.2c0,0.2-0.2,0.3-0.3,0.3h-4.9h0c-0.1,0-0.2,0-0.2-0.1c0,0,0,0,0,0
	c0,0,0,0,0,0c-0.1-0.1-0.1-0.1-0.1-0.2v0v-7.6v0c0-0.1,0-0.2,0.1-0.2c0,0,0,0,0,0c0,0,0,0,0,0c0.1-0.1,0.1-0.1,0.2-0.1h0h4.9
	c0.2,0,0.3,0.2,0.3,0.3V19.7z"/>
</svg>
