<?xml version="1.0" standalone="no"?>
<!DOCTYPE svg PUBLIC "-//W3C//DTD SVG 20010904//EN"
 "http://www.w3.org/TR/2001/REC-SVG-20010904/DTD/svg10.dtd">
<svg version="1.0" xmlns="http://www.w3.org/2000/svg"
 width="151.000000pt" height="151.000000pt" viewBox="0 0 151.000000 151.000000"
 preserveAspectRatio="xMidYMid meet">

<g transform="translate(0.000000,151.000000) scale(0.100000,-0.100000)"
fill="#000000" stroke="none">
<path d="M646 1364 c-9 -8 -16 -27 -16 -42 0 -42 -11 -72 -26 -72 -7 0 -39
-11 -70 -25 l-56 -25 -35 30 c-18 17 -41 30 -50 30 -21 0 -143 -122 -143 -143
0 -9 14 -32 31 -51 l31 -35 -26 -65 c-14 -35 -26 -69 -26 -74 0 -5 -21 -12
-46 -16 -70 -9 -74 -16 -74 -117 0 -79 2 -89 22 -103 12 -9 39 -16 59 -16 36
0 38 -2 68 -66 l31 -66 -30 -35 c-16 -18 -30 -43 -30 -54 0 -11 25 -47 57 -80
65 -68 89 -74 139 -30 l33 29 68 -27 68 -28 7 -49 c9 -64 25 -74 118 -74 95 0
108 9 117 78 3 28 11 52 17 52 6 0 35 11 64 25 l54 25 36 -30 c20 -17 46 -30
56 -30 29 0 136 109 136 138 0 13 -12 39 -26 58 l-27 34 27 59 c14 32 26 63
26 69 0 14 25 22 65 22 50 0 65 28 65 117 0 91 -17 113 -85 113 -27 0 -45 5
-45 11 0 6 -12 38 -26 70 l-27 59 32 35 c17 20 31 45 31 57 0 31 -110 138
-141 138 -13 -1 -39 -14 -58 -30 l-34 -29 -36 18 c-20 10 -53 24 -73 30 -36
12 -38 15 -38 55 0 64 -19 76 -118 76 -60 0 -85 -4 -96 -16z m164 -76 c0 -24
4 -49 9 -56 4 -8 37 -24 72 -36 35 -12 76 -30 91 -40 27 -18 27 -17 75 19 l48
37 37 -44 c21 -23 38 -48 38 -54 0 -5 -15 -25 -34 -43 l-33 -32 27 -52 c16
-29 34 -71 41 -94 13 -44 16 -46 99 -55 28 -3 37 -35 26 -93 -6 -31 -10 -33
-60 -39 l-53 -7 -17 -58 c-9 -31 -28 -75 -41 -96 l-23 -39 36 -44 35 -43 -44
-45 -45 -45 -42 37 -42 36 -61 -31 c-34 -17 -76 -33 -95 -37 -29 -5 -34 -10
-34 -34 0 -15 -3 -42 -6 -59 l-7 -32 -61 3 -61 3 -5 54 -5 54 -65 21 c-36 12
-78 31 -93 41 -28 18 -29 18 -55 -4 -62 -50 -71 -50 -113 -2 l-39 44 35 38
c19 22 35 41 35 43 0 3 -10 22 -22 42 -12 20 -29 60 -38 88 -16 47 -20 51 -51
54 -78 6 -79 7 -79 71 0 65 5 71 68 71 l37 0 22 71 c13 39 32 83 43 98 l19 28
-34 41 c-19 22 -35 44 -35 48 0 11 72 84 83 84 5 0 25 -13 44 -30 40 -36 42
-36 89 -8 20 12 60 29 88 38 54 18 63 32 65 98 l1 32 65 0 65 0 0 -42z"/>
<path d="M668 995 c-99 -36 -158 -121 -158 -227 0 -112 59 -197 161 -233 206
-73 396 146 296 342 -56 109 -185 160 -299 118z m155 -49 c105 -44 152 -176
97 -274 -62 -111 -201 -133 -296 -49 -47 41 -64 77 -64 137 0 63 18 106 61
146 56 52 136 68 202 40z"/>
</g>
</svg>
