<?xml version="1.0" standalone="no"?>
<!DOCTYPE svg PUBLIC "-//W3C//DTD SVG 20010904//EN"
 "http://www.w3.org/TR/2001/REC-SVG-20010904/DTD/svg10.dtd">
<svg version="1.0" xmlns="http://www.w3.org/2000/svg"
 width="150.000000pt" height="150.000000pt" viewBox="0 0 150.000000 150.000000"
 preserveAspectRatio="xMidYMid meet">

<g transform="translate(0.000000,150.000000) scale(0.100000,-0.100000)"
fill="#000000" stroke="none">
<path d="M695 1190 c-60 -61 -158 -156 -216 -211 l-107 -99 -116 0 -116 0 0
-180 0 -180 123 0 122 -1 209 -204 c207 -204 208 -205 252 -205 32 0 44 4 44
15 0 8 7 15 15 15 13 0 15 68 13 578 l-3 577 -55 3 -55 2 -110 -110z m173
-482 c-3 -534 -3 -543 -23 -546 -14 -2 -79 55 -230 202 l-210 205 -107 1 -108
0 0 130 0 130 101 0 102 0 51 47 c28 26 126 120 219 210 103 101 175 163 187
163 20 0 20 -5 18 -542z"/>
<path d="M1217 1123 c-12 -11 -8 -40 8 -53 29 -24 84 -118 105 -181 28 -81 31
-200 6 -284 -19 -64 -72 -159 -106 -190 -29 -26 -27 -65 4 -65 54 0 155 173
177 303 24 143 -17 298 -112 424 -36 48 -64 64 -82 46z"/>
<path d="M1106 1015 c-3 -9 11 -37 33 -67 99 -130 93 -309 -14 -436 -29 -34
-25 -62 10 -62 16 0 34 15 58 48 107 146 103 356 -10 497 -29 37 -66 46 -77
20z"/>
<path d="M1029 924 c-10 -12 -10 -19 -1 -32 30 -41 62 -120 62 -152 0 -34 -21
-84 -58 -142 -16 -26 -16 -28 0 -45 17 -16 19 -16 44 8 49 45 69 97 69 179 0
81 -15 121 -63 173 -30 31 -35 33 -53 11z"/>
</g>
</svg>
