<svg xmlns="http://www.w3.org/2000/svg" viewBox="0 0 240 49.281">
  <g id="lo_eow2" transform="translate(-0.156 -0.156)">
    <path d="M34.806,45.926c0,.247-.494.247-.494.371-.124.247-.618.371-.865.494a3.053,3.053,0,0,0-1.112.494,4.577,4.577,0,0,1-2.224.988,2.935,2.935,0,0,1-1.483.371c-.247-.124-.741.247-.988.247-.247.124-.494,0-.741.124H26.4c-.124,0-.247-.124-.371,0-.124,0-.247.124-.371.124H24.551a2.721,2.721,0,0,0-.988.124h-.988c-.247,0-.494.124-.741.124a2.032,2.032,0,0,1-1.236-.124h-.618a2.721,2.721,0,0,1-.988-.124c-.124,0-.247-.124-.371-.124H18.25c-.247-.124-.865-.124-1.112-.247-.371-.124-.741-.124-1.112-.247s-.741-.124-.988-.247a13.728,13.728,0,0,0-1.977-.865c-.124-.124-.371-.124-.494-.247l-.371-.371a3.1,3.1,0,0,0-.865-.494c-.371-.124-.741-.494-1.112-.618a4.226,4.226,0,0,1-1.359-.124c-.371-.124-.618-.124-.865-.371s-.494-.741-.865-.865a2.7,2.7,0,0,1-1.112-1.236c0-.124,0-.124-.124-.247a1.991,1.991,0,0,0-.494-.865c-.247-.247-.371-.618-.618-.865a1.4,1.4,0,0,1-.371-.988c0-.494-.741-.618-.371-1.112v-.124a2.616,2.616,0,0,1,.371-.865c.124-.247.371-.247.618-.247s.618,0,.741-.124a4.334,4.334,0,0,1,.988-.618c.371-.124.494-.371.865-.494.618-.371,1.236-.618,1.73-.988.371-.371.865-.494,1.236-.865a16.1,16.1,0,0,1,1.853-1.236c1.112-.618,2.1-1.483,3.212-2.224A15.107,15.107,0,0,0,18,29.74c.124-.124.247-.371.494-.371.247-.124.371-.124.494-.247a2.69,2.69,0,0,0,.618-.988c.124-.247.618-.741,0-.865h-.124a2.227,2.227,0,0,0-1.236.124,4.2,4.2,0,0,1-1.236.124c-.247,0-.618.124-.741.124-.494-.247-1.236.371-1.73.247a1.786,1.786,0,0,0-.865.247.926.926,0,0,0-.618.124,4.51,4.51,0,0,1-2.224,0h-.247a2.066,2.066,0,0,0-1.483-.124c-.124,0-.247.124-.371.124H7.5c-.371,0-.865.124-1.112.124H6.265a4.39,4.39,0,0,0-1.236.247H4.906a2.1,2.1,0,0,0-.865.124H2.929A3.391,3.391,0,0,1,1.446,29H1.2c-.371,0-1.112-.741-.865-1.112A5.539,5.539,0,0,0,.21,26.4a4.142,4.142,0,0,1,0-1.236c.124-.247.247-.371.247-.494.124-.247,0-.494,0-.618v-.124a3.359,3.359,0,0,1,0-1.112,3.239,3.239,0,0,1,.618-1.112c.124-.371,0-.741.247-1.112a6.622,6.622,0,0,0,.618-1.359,17.5,17.5,0,0,0,.988-2.224,10.866,10.866,0,0,0,.741-1.236,8.964,8.964,0,0,1,.618-1.112,3.7,3.7,0,0,1,.494-.988c.247-.494.865-.988.988-1.483v-.124c.494-.988.865-1.359,1.112-1.853.124-.371.494-.618.741-.988s.494-.494.741-.865A6.79,6.79,0,0,1,9.23,7.253c.494-.618,1.359-.988,1.853-1.73.124-.247.494-.371.618-.494a3.755,3.755,0,0,1,.865-.618,7.285,7.285,0,0,0,.988-.494c.247-.124.371-.618.741-.618l.741-.371c.247-.124.494-.371.741-.494.371-.124.865-.124,1.112-.371.124,0,.371-.124.494-.124l.494-.247a.454.454,0,0,0,.371-.124c.618-.124,1.112-.371,1.606-.494s.988-.124,1.359-.247c.124,0,.124-.124.247-.124A4.2,4.2,0,0,1,22.7.581a5.351,5.351,0,0,0,.618-.124.121.121,0,0,0,.124-.124c.494.124,1.112-.247,1.606-.124.247-.124.618,0,.865,0h.124A2.291,2.291,0,0,0,26.9.458C27.269.334,27.64.7,28.01.7c.124,0,.124-.124.247,0,.124,0,.124.124.247.124H29c.247,0,.494.247.741.247h.124c.124.124.371.124.494.247a1.756,1.756,0,0,1,.741.247c.371.124.741.124,1.112.247.247,0,.371.247.618.371s.371.124.618.247c.494.124.865.371,1.359.494a12.479,12.479,0,0,1,3.089,1.73A11.649,11.649,0,0,1,39.13,5.894c.247.247.371.618.618.741s.494.494.741.741a1.646,1.646,0,0,0,.618.371H41.6a.937.937,0,0,1,.494.247c.124.124-.124,0,.124.247.124.124.247.124.371.247.371.124.618.618.865,1.112.247.618.741.988.988,1.606,0,.124.124.247.124.371.124.247.371.247.247.618-.124.494.494,1.236.741,1.606a1.567,1.567,0,0,1,.124.741,1.756,1.756,0,0,1,.247.741c0,.124.124.371.124.494.124.247.371.247.371.494,0,.124,0,.247.124.247,0,.124.124.247.124.371v.124a5.31,5.31,0,0,1,.247,1.483c0,.247-.124.494-.124.741a.266.266,0,0,0,.247.247v.371c.124.247,0,.494,0,.741,0,.124.124.247.124.494,0,.124-.124.371,0,.494,0,.618-.124,1.236-.124,1.73,0,.247.124.618.124.865s-.124.494,0,.618c-.247.371-.124,1.112-.124,1.606v.741a1.045,1.045,0,0,0,0,.865.944.944,0,0,1-.247.618v.741c-.124.371-.124.988-.371,1.236v.124c-.124.247,0,.494-.124.741v.371a2.22,2.22,0,0,1-.494,1.112c-.124.247-.618.865-.618,1.112v.124c0,.124-.247.371-.247.494a5.351,5.351,0,0,0-.124.618c0,.247-.247.494-.247.618-.124.247,0,.371-.247.494,0,.124-.247.371-.247.494-.124.371-.247.494-.371.865-.124.247-.124.371-.247.618a1.706,1.706,0,0,1-.371.494,13.087,13.087,0,0,0-1.236,1.483,1.015,1.015,0,0,1-.618.618c-.371.124-.247,0-.494.494-.124.371-.618.618-.865.865a1.233,1.233,0,0,0-.618.494l-.371.371c-.124.124-.371.124-.618.247-.371.247-.494.618-.865.865-.124.124-.865.741-.988.494-.124.124-.124.247-.247.371s-.124,0-.247.124C35.547,45.432,34.806,45.555,34.806,45.926ZM5.894,26.4c.124,0,.371-.124.494-.124h.618c.124,0,.247,0,.247-.124H7.5c.371,0,.618.247.988.124.247-.124.371-.124.618-.247h.247c.247,0,.371.124.618,0,.494-.124.865.247,1.359.124a5.068,5.068,0,0,1,1.359-.124c.247,0,.494-.124.618,0,.494-.247.988,0,1.606-.124a8.656,8.656,0,0,1,1.73-.371c.247,0,.494-.124.865-.124a1.661,1.661,0,0,0,1.112-.247c.247,0,.371-.124.618-.124a1.567,1.567,0,0,0,.741-.124H20.1c.247.124.494,0,.865.124h.988c.247,0,.371-.124.494,0a4.39,4.39,0,0,1,1.236-.247c.124,0,.494-.124.618-.124a1.224,1.224,0,0,1,1.359.988v.494c-.124.247-.371.741-.618.741-.124,0-.247.124-.371.247a1.3,1.3,0,0,1-.494.371c-.494.124-.741.494-1.236.618s-.741.618-1.236.865c-.371.247-.741.371-.865.741s-.618.494-.988.741l-.618.618c-.247.124-.494.371-.741.494a7.38,7.38,0,0,1-1.359.741,2.7,2.7,0,0,1-.618.494h-.371c-.247.124-.618.494-.865.618a4.112,4.112,0,0,1-1.236.741c-.618.371-1.112.865-1.606,1.112l-.741.371c-.124.124-.124.247-.371.247-.371,0-.618.371-.988.618-.247.124-.371.124-.494.247a2.585,2.585,0,0,1-.741.494c-.247.124-.371.371-.618.494.124.371-.247.371-.371.494l-.371.371a.926.926,0,0,1-.618.124c-.247,0-.618.247-.618.494,0,.494.247.741.247,1.236a.454.454,0,0,0,.124.371c.124.124.247,0,.371.124.124.247.494.371.741.618.124.371.247.865.618.988l.247.124a.121.121,0,0,0,.124.124c0,.124.124.124.247,0a1.234,1.234,0,0,1,.618.494c.247.247.494.247.741.371s.494.371.741.494c.494.247.865.618,1.359.865a1.646,1.646,0,0,1,.618.371c.247.247.371.371.618.371.494,0,.988.494,1.483.618a2.444,2.444,0,0,0,1.359.247c.247,0,.371.124.618.124.124,0,.124.124.371.124.124-.124.247-.124.247,0,.124,0,.371.124.494.124a1.567,1.567,0,0,0,.741.124,2.1,2.1,0,0,1,.865.124l.124.124h1.606a.376.376,0,0,0,.494,0c.247,0,.371.124.494.124a1.714,1.714,0,0,1,1.112,0,2.568,2.568,0,0,0,1.359-.124h.124a4.442,4.442,0,0,0,1.359-.247h.618c.371-.124.741-.124,1.112-.247.247-.124.618-.124.865-.247a5.351,5.351,0,0,0,.618-.124,13.451,13.451,0,0,0,3.089-1.236c.124,0,.247-.124.371-.124.247-.124.494-.494.741-.618s.618-.124.865-.371c.247-.124.371-.494.741-.618.124,0,.618-.371.618-.494.247-.247.618-.371.865-.618a2.169,2.169,0,0,0,.618-.494,6.188,6.188,0,0,1,.988-.865,1.816,1.816,0,0,0,.741-.618c.371-.494.988-.741,1.236-1.236a1.706,1.706,0,0,1,.371-.494l.124-.124c0-.124.124-.371.247-.371.371-.371.494-.865.865-1.236a3.626,3.626,0,0,1,.371-1.236c.124-.371.124-.618.371-.865,0-.124,0-.124.124-.247v-.124c0-.124,0-.247.124-.247a2.484,2.484,0,0,0,.494-.988V33.2a4.113,4.113,0,0,1,.371-.741v-.247c0-.247.124-.371.124-.618,0-.124.247-.371.247-.494v-.494a.944.944,0,0,1,.247-.618c0-.124.124-.247.124-.371s-.124-.247,0-.494v-.371c.124-.247.124-.741.247-1.112V26.528a2.721,2.721,0,0,1,.124-.988v-.494c-.124-.247,0-.371.124-.618V22.7c-.124-.247,0-.494,0-.741a2.291,2.291,0,0,0-.247-.865v-.371c.247-.618-.247-1.359-.371-2.1v-.494a6.024,6.024,0,0,0-.371-.865A1.122,1.122,0,0,1,44.2,16.4a3.626,3.626,0,0,0-.371-1.236,1.991,1.991,0,0,1-.494-.865,5.027,5.027,0,0,0-.247-1.236c-.124-.247-.247-.371-.371-.618-.247-.371-.494-.618-.618-.865s-.371-.371-.494-.618-.124-.371-.247-.494A7.5,7.5,0,0,0,40.119,9.6a.965.965,0,0,1-.494-.494,1.706,1.706,0,0,0-.494-.371c-.371-.371-.741-.865-1.112-1.236a5.708,5.708,0,0,0-.865-.865c-.247-.247-1.112-.494-1.112-.865s-.618-.371-.865-.494h0a.743.743,0,0,0-.494-.124c-.618-.247-.988-.618-1.359-.618l-.247-.124a3.04,3.04,0,0,1-1.359-.494,2.384,2.384,0,0,0-1.236-.371,1.567,1.567,0,0,1-.741-.124,8.513,8.513,0,0,1-.988-.371c-.494,0-.988-.124-1.483-.124-.247,0-.371-.124-.618-.124-.124,0-.247.124-.494.124a5.351,5.351,0,0,0-.618-.124,3.649,3.649,0,0,1-1.606.247c-.371-.124-.494-.124-.741.124a1,1,0,0,1-.988.494,2.291,2.291,0,0,0-.865.247c-.247,0-.988.247-1.236.247s-.494.247-.741.371-.494.124-.618.247a2.291,2.291,0,0,1-.865.247c-.124,0-.371-.124-.371,0-.865.124-1.606.988-2.471,1.359-.247,0-.371.124-.494.124s-.741.247-.741.371a.937.937,0,0,1-.494.247,3.983,3.983,0,0,0-1.73.988,2.515,2.515,0,0,1-.741.865c-.124.124-.247.124-.494.371-.371.494-.865.865-1.236,1.359,0,.371-.494.618-.618.865-.247.247-.371.494-.494.618a2.515,2.515,0,0,0-.865.741c-.247.371-.371.988-.618,1.359s-.988.988-.988,1.483V15.9c-.124.124-.124.371-.247.494-.124.247-.371.247-.494.494a1.114,1.114,0,0,0-.124.618c-.124.247-.247.371-.247.494,0,.247-.247.371-.247.494a5.164,5.164,0,0,0-.494,1.236A3.927,3.927,0,0,0,3.3,20.844v.247c-.124.247-.494.371-.371.741v.124a10.293,10.293,0,0,0-.494,1.853,1.114,1.114,0,0,1-.124.618c0,.247-.247.494-.124.618a2.032,2.032,0,0,0,.247,1.236c.124.247.124.371.494.247a.944.944,0,0,0,.618-.247c.124-.124.371,0,.494-.124.247,0,.371-.124.618-.124h.371c.247,0,.371.124.618,0,.247,0,.371-.124.494-.124-.371.494-.371.494-.247.494ZM18,12.69h.988c.124,0,.247-.124.371-.124a1.661,1.661,0,0,0,.865-.741c.247-.247.618-.494.618-.741,0-.124.247-.371.247-.494V9.848c0-.371-.124-.865-.124-1.236A1.572,1.572,0,0,0,20.1,7.5a3.239,3.239,0,0,0-1.112-.618H18c-.124,0-.247-.124-.247,0a2.884,2.884,0,0,0-2.471,2.471c-.124.247.124.494,0,.865a1.567,1.567,0,0,0,.124.741.642.642,0,0,1,.247.494c.124.247.124.494.371.618.124.124.618.618.741.618C17.138,12.442,17.632,12.69,18,12.69Zm-.371-5.066a3.1,3.1,0,0,0-.865.494,1.816,1.816,0,0,0-.618.741c0,.124-.124.124-.124.247v.247c-.124.247.124.371.124.618v.124c.247.247.124.741.247.988.124.124.371.494.494.494s.247.371.371.371c0-.124,0,0,.124,0h.247c.247,0,.371.124.618.124h.494c.618-.247-.371-.494-.618-.618a1.639,1.639,0,0,1-.741-1.236v-.124a.171.171,0,0,1,0-.247V9.477c0-.124,0-.247.124-.247a1.016,1.016,0,0,1,.741-.494c.247,0,.371-.124.494-.124h.124l.371.124a.454.454,0,0,0,.371.124c.247-.124,0-.247,0-.371V8.365c-.124-.247-.247-.494-.494-.494s-.494-.124-.741-.124h-.247A.934.934,0,0,1,17.632,7.624Z" fill-rule="evenodd"/>
    <path d="M165.155,15.808a4.683,4.683,0,0,1-3.583,1.606,4.94,4.94,0,0,1-3.212-1.236A4.943,4.943,0,0,1,157,12.6a4.463,4.463,0,0,1,4.7-4.7,4.245,4.245,0,0,1,4.448,4.324A5.112,5.112,0,0,1,165.155,15.808Zm-3.583-5.684c-1.359,0-2.1.988-2.1,2.595,0,1.853,1.112,2.595,2.224,2.595s2.224-.865,2.1-2.718C163.672,11.112,162.931,10.124,161.572,10.124Z" transform="translate(36.946 1.824)"/>
    <path d="M173.384,17.143h-2.348V12.077a3.134,3.134,0,0,0-.247-1.483,1.305,1.305,0,0,0-1.112-.618,1.756,1.756,0,0,0-.741.247c-.988.494-.988,1.606-.988,2.348v4.572H165.6v-8.9h2.224v.865A3.918,3.918,0,0,1,170.419,8a2.687,2.687,0,0,1,1.236.247c1.853.741,1.853,2.348,1.853,3.336v5.56Z" transform="translate(38.972 1.848)"/>
    <path d="M178.16,13.508c0,1.112,0,1.236.124,1.483.124.494.247.865,1.236.865h.618v2.1c-.371,0-.865.124-1.606.124a4.583,4.583,0,0,1-1.73-.247,1.9,1.9,0,0,1-.865-1.853V10.3H174.7V8.812h1.236V5.6h2.224V8.812h1.977v1.606H178.16v3.089Z" transform="translate(41.115 1.282)"/>
    <path d="M187.784,17.8h-2.348V12.737a3.134,3.134,0,0,0-.247-1.483,1.305,1.305,0,0,0-1.112-.618,1.756,1.756,0,0,0-.741.247c-.988.494-.988,1.606-.988,2.348V17.8H180V5.2h2.348V9.648a3.576,3.576,0,0,1,2.471-1.112,2.968,2.968,0,0,1,1.236.247c1.853.741,1.853,2.348,1.853,3.336V17.8Z" transform="translate(42.364 1.188)"/>
    <path d="M195.9,15.413a4.621,4.621,0,0,1-1.112,1.112,4.851,4.851,0,0,1-3.089.988A4.575,4.575,0,0,1,187,12.7,4.35,4.35,0,0,1,191.448,8a4.26,4.26,0,0,1,3.336,1.483,5.81,5.81,0,0,1,1.112,3.707h-6.548a1.661,1.661,0,0,0,.247.988,2.49,2.49,0,0,0,2.1,1.236,2.628,2.628,0,0,0,2.1-1.112l2.1,1.112Zm-2.471-3.954a1.2,1.2,0,0,0-.494-1.112,1.976,1.976,0,0,0-1.359-.494,2.087,2.087,0,0,0-1.236.371,3.509,3.509,0,0,0-.741,1.236Z" transform="translate(44.012 1.848)"/>
    <path d="M171.827,39.715h-3.46L166.02,28.842l-2.348,10.873h-3.336L157,23.9h2.965l2.1,10.626L164.537,23.9h3.089L170.1,34.526,172.321,23.9h2.965Z" transform="translate(36.946 5.593)"/>
    <path d="M184.932,39.715H172.7V23.9h11.738v2.595h-8.4v3.089h6.3v2.842h-6.3V36.75h8.9Z" transform="translate(40.644 5.593)"/>
    <path d="M190.672,23.9a8.157,8.157,0,0,1,1.73.124c2.471.371,3.583,1.853,3.583,3.83a3.112,3.112,0,0,1-1.606,2.965c-.247.124-.494.124-.741.247.247.124.618.124.865.247a3.8,3.8,0,0,1,2.348,3.707,4.361,4.361,0,0,1-.371,1.73c-1.112,2.965-3.583,2.965-5.313,2.965H184V23.9Zm-3.336,6.054h2.718a3.162,3.162,0,0,0,1.977-.371A1.54,1.54,0,0,0,192.9,28.1a1.419,1.419,0,0,0-.741-1.359,2.758,2.758,0,0,0-1.73-.371h-3.212v3.583Zm0,2.595V37H190.3a5.176,5.176,0,0,0,2.224-.247,1.922,1.922,0,0,0,1.112-1.853,3.608,3.608,0,0,0-.247-1.112c-.618-1.112-1.853-1.112-2.965-1.236Z" transform="translate(43.306 5.593)"/>
    <path d="M76.3,31.433h11v-6.8H84.455V14.506H70.864V12.9H63.08v1.606H49.489V24.638H46.894v6.8h13.22l.124.741L46.4,36.746l4.077,6.8L67.4,36l16.309,7.537L88.162,36.5,76.177,32.175Zm-13.22-6.8h-6.8V21.3h6.8ZM70.864,21.3h7.043v3.336H70.864Z" transform="translate(10.893 3.002)"/>
    <path d="M131.326,32.694l.618,2.842-4.7.741V30.964H139.11V7.242H133.18V4.4h-7.537V7.242h-5.189V37.266l-1.853.371,1.112,7.166,13.838-2.842.494,1.977,6.425-.741-2.842-10.873-6.3.371Zm-3.954-19.4h4.819v2.348h-4.819S127.372,13.3,127.372,13.3Zm0,8.525h4.819v2.595h-4.819S127.372,21.821,127.372,21.821Z" transform="translate(27.9 1)"/>
    <path d="M53.743,14.484h7.29V12.878H72.647v1.606h7.29V12.878h7.29V6.33h-7.29V4.6h-7.29V6.33H61.032V4.6h-7.29V6.33H46.7v6.548h7.043Z" transform="translate(10.964 1.047)"/>
    <path d="M117.41,13.572h1.112v-6.8h-5.931V4.8h-6.919V6.653H99.247v6.919h1.73l.741,4.942H99v6.919h6.8v3.83H99.124v6.919H105.8v8.525h6.8V36.183h6.672V29.264h-6.672v-3.83h6.672v-6.8H116.3Zm-6.3,0L110,18.515h-2.224l-.865-4.942Z" transform="translate(23.283 1.094)"/>
    <path d="M96.22,11.7l4.2-.371L100.051,4.9l-16.8,1.483.494,6.548,5.436-.494v3.336H83v6.919h6.178V26.4H84.236V43.944h16.433V26.4H96.344V22.692h4.819V15.773H96.344V11.7ZM94.367,37.024H90.413V32.947h3.954Z" transform="translate(19.515 1.118)"/>
    <path d="M153,21.362l1.73-8.155V5.3H137.8V44.22h6.919V39.648h10.132V30.011Zm-3.83,10.379h-4.324V12.219h4.2l-2.1,9.39Z" transform="translate(32.423 1.212)"/>
    <circle cx="1.73" cy="1.73" r="1.73" transform="translate(193.822 22.45)"/>
    <circle cx="1.73" cy="1.73" r="1.73" transform="translate(200.988 22.45)"/>
    <circle cx="1.73" cy="1.73" r="1.73" transform="translate(208.155 22.45)"/>
    <circle cx="1.73" cy="1.73" r="1.73" transform="translate(215.321 22.45)"/>
    <circle cx="1.73" cy="1.73" r="1.73" transform="translate(222.487 22.45)"/>
    <circle cx="1.73" cy="1.73" r="1.73" transform="translate(229.53 22.45)"/>
    <circle cx="1.73" cy="1.73" r="1.73" transform="translate(236.696 22.45)"/>
  </g>
</svg>
