<svg xmlns="http://www.w3.org/2000/svg" width="24" height="25.162" viewBox="0 0 24 25.162">
  <path id="パス_1320" data-name="パス 1320" d="M17.847,23.525c0,.126-.252.126-.252.189-.063.126-.315.189-.442.252a1.559,1.559,0,0,0-.568.252,2.337,2.337,0,0,1-1.136.5,1.5,1.5,0,0,1-.757.189c-.126-.063-.379.126-.5.126-.126.063-.252,0-.379.063h-.252c-.063,0-.126-.063-.189,0-.063,0-.126.063-.189.063h-.568a1.389,1.389,0,0,0-.5.063h-.5c-.126,0-.252.063-.379.063a1.038,1.038,0,0,1-.631-.063h-.315a1.389,1.389,0,0,1-.5-.063c-.063,0-.126-.063-.189-.063H9.394c-.126-.063-.442-.063-.568-.126-.189-.063-.379-.063-.568-.126s-.379-.063-.5-.126a7.01,7.01,0,0,0-1.009-.442c-.063-.063-.189-.063-.252-.126L6.3,23.966a1.581,1.581,0,0,0-.442-.252c-.189-.063-.379-.252-.568-.315a2.158,2.158,0,0,1-.694-.063c-.189-.063-.315-.063-.442-.189s-.252-.379-.442-.442a1.381,1.381,0,0,1-.568-.631c0-.063,0-.063-.063-.126a1.017,1.017,0,0,0-.252-.442c-.126-.126-.189-.315-.315-.442a.716.716,0,0,1-.189-.5c0-.252-.379-.315-.189-.568v-.063a1.336,1.336,0,0,1,.189-.442c.063-.126.189-.126.315-.126s.315,0,.379-.063a2.213,2.213,0,0,1,.5-.315c.189-.063.252-.189.442-.252.315-.189.631-.315.883-.5.189-.189.442-.252.631-.442a8.219,8.219,0,0,1,.946-.631C7,16.838,7.5,16.4,8.069,16.018a7.713,7.713,0,0,0,1.2-.757c.063-.063.126-.189.252-.189.126-.063.189-.063.252-.126a1.374,1.374,0,0,0,.315-.5c.063-.126.315-.379,0-.442h-.063a1.137,1.137,0,0,0-.631.063,2.146,2.146,0,0,1-.631.063c-.126,0-.315.063-.379.063-.252-.126-.631.189-.883.126a.912.912,0,0,0-.442.126.473.473,0,0,0-.315.063,2.3,2.3,0,0,1-1.136,0H5.483a1.055,1.055,0,0,0-.757-.063c-.063,0-.126.063-.189.063H3.906c-.189,0-.442.063-.568.063H3.275a2.241,2.241,0,0,0-.631.126H2.581a1.074,1.074,0,0,0-.442.063H1.571a1.731,1.731,0,0,1-.757.126H.688c-.189,0-.568-.379-.442-.568a2.828,2.828,0,0,0-.063-.757,2.115,2.115,0,0,1,0-.631c.063-.126.126-.189.126-.252.063-.126,0-.252,0-.315V12.3a1.715,1.715,0,0,1,0-.568,1.654,1.654,0,0,1,.315-.568c.063-.189,0-.379.126-.568A3.381,3.381,0,0,0,1.067,9.9a8.937,8.937,0,0,0,.5-1.136,5.548,5.548,0,0,0,.379-.631,4.577,4.577,0,0,1,.315-.568,1.889,1.889,0,0,1,.252-.5c.126-.252.442-.5.5-.757V6.24c.252-.5.442-.694.568-.946.063-.189.252-.315.379-.5s.252-.252.379-.442a3.467,3.467,0,0,1,.442-.568c.252-.315.694-.5.946-.883.063-.126.252-.189.315-.252a1.917,1.917,0,0,1,.442-.315A3.719,3.719,0,0,0,7,2.076c.126-.063.189-.315.379-.315l.379-.189c.126-.063.252-.189.379-.252.189-.063.442-.063.568-.189.063,0,.189-.063.252-.063L9.2.941A.232.232,0,0,0,9.394.878c.315-.063.568-.189.82-.252s.5-.063.694-.126c.063,0,.063-.063.126-.063a2.146,2.146,0,0,1,.631-.063A2.732,2.732,0,0,0,11.98.31a.062.062,0,0,0,.063-.063c.252.063.568-.126.82-.063.126-.063.315,0,.442,0h.063A1.17,1.17,0,0,0,13.81.31c.189-.063.379.126.568.126.063,0,.063-.063.126,0,.063,0,.063.063.126.063h.252c.126,0,.252.126.379.126h.063c.063.063.189.063.252.126a.9.9,0,0,1,.379.126c.189.063.379.063.568.126.126,0,.189.126.315.189s.189.063.315.126c.252.063.442.189.694.252a6.372,6.372,0,0,1,1.577.883,5.948,5.948,0,0,1,.631.631c.126.126.189.315.315.379s.252.252.379.379a.84.84,0,0,0,.315.189h.252a.478.478,0,0,1,.252.126c.063.063-.063,0,.063.126.063.063.126.063.189.126.189.063.315.315.442.568.126.315.379.5.5.82,0,.063.063.126.063.189.063.126.189.126.126.315-.063.252.252.631.379.82A.8.8,0,0,1,23.4,7.5a.9.9,0,0,1,.126.379c0,.063.063.189.063.252.063.126.189.126.189.252,0,.063,0,.126.063.126,0,.063.063.126.063.189v.063a2.711,2.711,0,0,1,.126.757c0,.126-.063.252-.063.379a.136.136,0,0,0,.126.126v.189c.063.126,0,.252,0,.379,0,.063.063.126.063.252,0,.063-.063.189,0,.252,0,.315-.063.631-.063.883,0,.126.063.315.063.442s-.063.252,0,.315c-.126.189-.063.568-.063.82v.379a.533.533,0,0,0,0,.442.482.482,0,0,1-.126.315v.379c-.063.189-.063.5-.189.631v.063c-.063.126,0,.252-.063.379v.189a1.134,1.134,0,0,1-.252.568c-.063.126-.315.442-.315.568v.063c0,.063-.126.189-.126.252a2.732,2.732,0,0,0-.063.315c0,.126-.126.252-.126.315-.063.126,0,.189-.126.252,0,.063-.126.189-.126.252-.063.189-.126.252-.189.442-.063.126-.063.189-.126.315a.871.871,0,0,1-.189.252,6.682,6.682,0,0,0-.631.757.518.518,0,0,1-.315.315c-.189.063-.126,0-.252.252-.063.189-.315.315-.442.442a.63.63,0,0,0-.315.252l-.189.189c-.063.063-.189.063-.315.126-.189.126-.252.315-.442.442-.063.063-.442.379-.5.252-.063.063-.063.126-.126.189s-.063,0-.126.063C18.226,23.272,17.847,23.335,17.847,23.525ZM3.085,13.557c.063,0,.189-.063.252-.063h.315c.063,0,.126,0,.126-.063h.126c.189,0,.315.126.5.063.126-.063.189-.063.315-.126h.126c.126,0,.189.063.315,0,.252-.063.442.126.694.063a2.588,2.588,0,0,1,.694-.063c.126,0,.252-.063.315,0,.252-.126.5,0,.82-.063a4.42,4.42,0,0,1,.883-.189c.126,0,.252-.063.442-.063a.848.848,0,0,0,.568-.126c.126,0,.189-.063.315-.063a.8.8,0,0,0,.379-.063h.063c.126.063.252,0,.442.063h.5c.126,0,.189-.063.252,0a2.241,2.241,0,0,1,.631-.126c.063,0,.252-.063.315-.063a.625.625,0,0,1,.694.5v.252c-.063.126-.189.379-.315.379-.063,0-.126.063-.189.126a.661.661,0,0,1-.252.189c-.252.063-.379.252-.631.315s-.379.315-.631.442c-.189.126-.379.189-.442.379s-.315.252-.5.379l-.315.315c-.126.063-.252.189-.379.252a3.768,3.768,0,0,1-.694.379,1.376,1.376,0,0,1-.315.252H8.321c-.126.063-.315.252-.442.315a2.1,2.1,0,0,1-.631.379c-.315.189-.568.442-.82.568l-.379.189c-.063.063-.063.126-.189.126-.189,0-.315.189-.5.315-.126.063-.189.063-.252.126a1.32,1.32,0,0,1-.379.252c-.126.063-.189.189-.315.252.063.189-.126.189-.189.252l-.189.189a.473.473,0,0,1-.315.063c-.126,0-.315.126-.315.252,0,.252.126.379.126.631a.232.232,0,0,0,.063.189c.063.063.126,0,.189.063.063.126.252.189.379.315.063.189.126.442.315.5l.126.063a.062.062,0,0,0,.063.063c0,.063.063.063.126,0A.63.63,0,0,1,5.1,22.2c.126.126.252.126.379.189s.252.189.379.252c.252.126.442.315.694.442a.84.84,0,0,1,.315.189c.126.126.189.189.315.189.252,0,.5.252.757.315a1.248,1.248,0,0,0,.694.126c.126,0,.189.063.315.063.063,0,.063.063.189.063.063-.063.126-.063.126,0,.063,0,.189.063.252.063a.8.8,0,0,0,.379.063,1.074,1.074,0,0,1,.442.063l.063.063h.82a.192.192,0,0,0,.252,0c.126,0,.189.063.252.063a.875.875,0,0,1,.568,0,1.311,1.311,0,0,0,.694-.063h.063a2.268,2.268,0,0,0,.694-.126h.315c.189-.063.379-.063.568-.126.126-.063.315-.063.442-.126a2.732,2.732,0,0,0,.315-.063,6.868,6.868,0,0,0,1.577-.631c.063,0,.126-.063.189-.063.126-.063.252-.252.379-.315s.315-.063.442-.189c.126-.063.189-.252.379-.315.063,0,.315-.189.315-.252.126-.126.315-.189.442-.315a1.107,1.107,0,0,0,.315-.252,3.16,3.16,0,0,1,.5-.442.927.927,0,0,0,.379-.315c.189-.252.5-.379.631-.631a.871.871,0,0,1,.189-.252l.063-.063c0-.063.063-.189.126-.189.189-.189.252-.442.442-.631a1.851,1.851,0,0,1,.189-.631c.063-.189.063-.315.189-.442,0-.063,0-.063.063-.126v-.063c0-.063,0-.126.063-.126a1.268,1.268,0,0,0,.252-.5v-.063a2.1,2.1,0,0,1,.189-.379v-.126c0-.126.063-.189.063-.315,0-.063.126-.189.126-.252V15.7a.482.482,0,0,1,.126-.315c0-.063.063-.126.063-.189s-.063-.126,0-.252v-.189c.063-.126.063-.379.126-.568v-.568a1.389,1.389,0,0,1,.063-.5v-.252c-.063-.126,0-.189.063-.315v-.883c-.063-.126,0-.252,0-.379a1.17,1.17,0,0,0-.126-.442v-.189c.126-.315-.126-.694-.189-1.072V9.331a3.075,3.075,0,0,0-.189-.442.573.573,0,0,1-.189-.442,1.851,1.851,0,0,0-.189-.631,1.017,1.017,0,0,1-.252-.442,2.567,2.567,0,0,0-.126-.631c-.063-.126-.126-.189-.189-.315-.126-.189-.252-.315-.315-.442s-.189-.189-.252-.315-.063-.189-.126-.252a3.829,3.829,0,0,0-.631-.442.493.493,0,0,1-.252-.252.871.871,0,0,0-.252-.189c-.189-.189-.379-.442-.568-.631a2.914,2.914,0,0,0-.442-.442c-.126-.126-.568-.252-.568-.442s-.315-.189-.442-.252h0a.379.379,0,0,0-.252-.063c-.315-.126-.5-.315-.694-.315l-.126-.063a1.552,1.552,0,0,1-.694-.252,1.217,1.217,0,0,0-.631-.189.8.8,0,0,1-.379-.063,4.346,4.346,0,0,1-.5-.189c-.252,0-.5-.063-.757-.063-.126,0-.189-.063-.315-.063-.063,0-.126.063-.252.063a2.732,2.732,0,0,0-.315-.063,1.863,1.863,0,0,1-.82.126c-.189-.063-.252-.063-.379.063a.512.512,0,0,1-.5.252,1.17,1.17,0,0,0-.442.126c-.126,0-.5.126-.631.126s-.252.126-.379.189-.252.063-.315.126a1.17,1.17,0,0,1-.442.126c-.063,0-.189-.063-.189,0-.442.063-.82.5-1.262.694-.126,0-.189.063-.252.063s-.379.126-.379.189a.478.478,0,0,1-.252.126,2.034,2.034,0,0,0-.883.5,1.284,1.284,0,0,1-.379.442c-.063.063-.126.063-.252.189-.189.252-.442.442-.631.694,0,.189-.252.315-.315.442-.126.126-.189.252-.252.315a1.284,1.284,0,0,0-.442.379c-.126.189-.189.5-.315.694s-.5.5-.5.757V8.2c-.063.063-.063.189-.126.252-.063.126-.189.126-.252.252a.569.569,0,0,0-.063.315c-.063.126-.126.189-.126.252,0,.126-.126.189-.126.252a2.636,2.636,0,0,0-.252.631,2,2,0,0,0-.189.568v.126c-.063.126-.252.189-.189.379v.063a5.256,5.256,0,0,0-.252.946.569.569,0,0,1-.063.315c0,.126-.126.252-.063.315a1.037,1.037,0,0,0,.126.631c.063.126.063.189.252.126a.482.482,0,0,0,.315-.126c.063-.063.189,0,.252-.063.126,0,.189-.063.315-.063h.189c.126,0,.189.063.315,0,.126,0,.189-.063.252-.063-.189.252-.189.252-.126.252Zm6.182-7h.5c.063,0,.126-.063.189-.063a.848.848,0,0,0,.442-.379c.126-.126.315-.252.315-.379,0-.063.126-.189.126-.252V5.1c0-.189-.063-.442-.063-.631a.8.8,0,0,0-.442-.568,1.654,1.654,0,0,0-.568-.315h-.5c-.063,0-.126-.063-.126,0A1.472,1.472,0,0,0,7.88,4.852c-.063.126.063.252,0,.442a.8.8,0,0,0,.063.379.328.328,0,0,1,.126.252c.063.126.063.252.189.315.063.063.315.315.379.315C8.826,6.429,9.078,6.555,9.268,6.555ZM9.078,3.969a1.581,1.581,0,0,0-.442.252.927.927,0,0,0-.315.379c0,.063-.063.063-.063.126v.126c-.063.126.063.189.063.315V5.23c.126.126.063.379.126.5.063.063.189.252.252.252s.126.189.189.189c0-.063,0,0,.063,0h.126c.126,0,.189.063.315.063h.252c.315-.126-.189-.252-.315-.315a.837.837,0,0,1-.379-.631V5.23a.087.087,0,0,1,0-.126V4.915c0-.063,0-.126.063-.126a.519.519,0,0,1,.379-.252c.126,0,.189-.063.252-.063h.063l.189.063a.232.232,0,0,0,.189.063c.126-.063,0-.126,0-.189V4.347c-.063-.126-.126-.252-.252-.252s-.252-.063-.379-.063H9.331A.477.477,0,0,1,9.078,3.969Z" transform="translate(-0.156 -0.156)" fill-rule="evenodd"/>
</svg>
