<svg xmlns="http://www.w3.org/2000/svg" width="187.184" height="28" viewBox="0 0 187.184 28">
  <g id="グループ_71" data-name="グループ 71" transform="translate(-224 171)">
    <g id="pro" transform="translate(366.625 -169.25)">
      <path id="パス_1321" data-name="パス 1321" d="M9.723,0H0V23.811H5.436V16.92H9.723a8.2,8.2,0,0,0,8.192-8.192V8.192A8.2,8.2,0,0,0,9.723,0Zm2.909,8.728a2.908,2.908,0,0,1-2.909,2.909H5.436V5.283H9.723a2.908,2.908,0,0,1,2.909,2.909Z" fill="#961e23"/>
      <path id="パス_1322" data-name="パス 1322" d="M44.869,26.937a8.269,8.269,0,1,1,8.269-8.269,8.283,8.283,0,0,1-8.269,8.269Zm0-11.867a3.6,3.6,0,1,0,3.6,3.6,3.594,3.594,0,0,0-3.6-3.6Z" transform="translate(-8.578 -2.438)"/>
      <path id="パス_1323" data-name="パス 1323" d="M27.783,26.659H22.5V19.922A8.4,8.4,0,0,1,30.922,11.5H32.3v5.283H30.922a3.1,3.1,0,0,0-3.139,3.139Z" transform="translate(-5.273 -2.695)"/>
    </g>
    <g id="lo_eow2" transform="translate(224 -171)">
      <path id="パス_25" data-name="パス 25" d="M19.843,26.161c0,.14-.281.14-.281.211-.07.14-.351.211-.491.281a1.734,1.734,0,0,0-.632.281,2.6,2.6,0,0,1-1.264.562,1.668,1.668,0,0,1-.842.211c-.14-.07-.421.14-.562.14-.14.07-.281,0-.421.07h-.281c-.07,0-.14-.07-.211,0-.07,0-.14.07-.211.07h-.632a1.546,1.546,0,0,0-.562.07h-.562c-.14,0-.281.07-.421.07a1.155,1.155,0,0,1-.7-.07h-.351a1.546,1.546,0,0,1-.562-.07c-.07,0-.14-.07-.211-.07h-.211c-.14-.07-.491-.07-.632-.14-.211-.07-.421-.07-.632-.14s-.421-.07-.562-.14A7.8,7.8,0,0,0,7.488,27c-.07-.07-.211-.07-.281-.14L7,26.652a1.76,1.76,0,0,0-.491-.281c-.211-.07-.421-.281-.632-.351a2.4,2.4,0,0,1-.772-.07c-.211-.07-.351-.07-.491-.211s-.281-.421-.491-.491a1.537,1.537,0,0,1-.632-.7c0-.07,0-.07-.07-.14a1.131,1.131,0,0,0-.281-.491c-.14-.14-.211-.351-.351-.491a.8.8,0,0,1-.211-.562c0-.281-.421-.351-.211-.632v-.07a1.487,1.487,0,0,1,.211-.491c.07-.14.211-.14.351-.14s.351,0,.421-.07a2.463,2.463,0,0,1,.562-.351c.211-.07.281-.211.491-.281.351-.211.7-.351.983-.562.211-.211.491-.281.7-.491a9.146,9.146,0,0,1,1.053-.7c.632-.351,1.193-.842,1.825-1.264a8.584,8.584,0,0,0,1.334-.842c.07-.07.14-.211.281-.211.14-.07.211-.07.281-.14a1.528,1.528,0,0,0,.351-.562c.07-.14.351-.421,0-.491h-.07a1.265,1.265,0,0,0-.7.07,2.388,2.388,0,0,1-.7.07c-.14,0-.351.07-.421.07-.281-.14-.7.211-.983.14a1.015,1.015,0,0,0-.491.14.526.526,0,0,0-.351.07,2.562,2.562,0,0,1-1.264,0h-.14a1.174,1.174,0,0,0-.842-.07c-.07,0-.14.07-.211.07h-.7c-.211,0-.491.07-.632.07h-.07a2.494,2.494,0,0,0-.7.14h-.07a1.2,1.2,0,0,0-.491.07H1.731a1.927,1.927,0,0,1-.842.14H.748c-.211,0-.632-.421-.491-.632a3.147,3.147,0,0,0-.07-.842,2.353,2.353,0,0,1,0-.7c.07-.14.14-.211.14-.281.07-.14,0-.281,0-.351v-.07a1.909,1.909,0,0,1,0-.632A1.841,1.841,0,0,1,.678,12.4c.07-.211,0-.421.14-.632A3.762,3.762,0,0,0,1.17,11a9.946,9.946,0,0,0,.562-1.264,6.174,6.174,0,0,0,.421-.7A5.093,5.093,0,0,1,2.5,8.4a2.1,2.1,0,0,1,.281-.562c.14-.281.491-.562.562-.842v-.07c.281-.562.491-.772.632-1.053.07-.211.281-.351.421-.562s.281-.281.421-.491a3.858,3.858,0,0,1,.491-.632c.281-.351.772-.562,1.053-.983.07-.14.281-.211.351-.281a2.133,2.133,0,0,1,.491-.351,4.139,4.139,0,0,0,.562-.281c.14-.07.211-.351.421-.351l.421-.211c.14-.07.281-.211.421-.281.211-.07.491-.07.632-.211.07,0,.211-.07.281-.07l.281-.14a.258.258,0,0,0,.211-.07c.351-.07.632-.211.913-.281s.562-.07.772-.14c.07,0,.07-.07.14-.07a2.388,2.388,0,0,1,.7-.07,3.04,3.04,0,0,0,.351-.07.069.069,0,0,0,.07-.07c.281.07.632-.14.913-.07.14-.07.351,0,.491,0h.07a1.3,1.3,0,0,0,.491.14c.211-.07.421.14.632.14.07,0,.07-.07.14,0,.07,0,.07.07.14.07h.281c.14,0,.281.14.421.14h.07c.07.07.211.07.281.14a1,1,0,0,1,.421.14c.211.07.421.07.632.14.14,0,.211.14.351.211s.211.07.351.14c.281.07.491.211.772.281a7.09,7.09,0,0,1,1.755.983,6.619,6.619,0,0,1,.7.7c.14.14.211.351.351.421s.281.281.421.421a.935.935,0,0,0,.351.211H23.7a.532.532,0,0,1,.281.14c.07.07-.07,0,.07.14.07.07.14.07.211.14.211.07.351.351.491.632.14.351.421.562.562.913,0,.07.07.14.07.211.07.14.211.14.14.351-.07.281.281.7.421.913a.89.89,0,0,1,.07.421,1,1,0,0,1,.14.421c0,.07.07.211.07.281.07.14.211.14.211.281,0,.07,0,.14.07.14,0,.07.07.14.07.211v.07a3.017,3.017,0,0,1,.14.842c0,.14-.07.281-.07.421a.151.151,0,0,0,.14.14v.211c.07.14,0,.281,0,.421,0,.07.07.14.07.281,0,.07-.07.211,0,.281,0,.351-.07.7-.07.983,0,.14.07.351.07.491s-.07.281,0,.351c-.14.211-.07.632-.07.913v.421a.594.594,0,0,0,0,.491.536.536,0,0,1-.14.351v.421c-.07.211-.07.562-.211.7v.07c-.07.14,0,.281-.07.421v.211a1.261,1.261,0,0,1-.281.632c-.07.14-.351.491-.351.632v.07c0,.07-.14.211-.14.281a3.04,3.04,0,0,0-.07.351c0,.14-.14.281-.14.351-.07.14,0,.211-.14.281,0,.07-.14.211-.14.281-.07.211-.14.281-.211.491-.07.14-.07.211-.14.351a.969.969,0,0,1-.211.281,7.435,7.435,0,0,0-.7.842.577.577,0,0,1-.351.351c-.211.07-.14,0-.281.281-.07.211-.351.351-.491.491a.7.7,0,0,0-.351.281l-.211.211c-.07.07-.211.07-.351.14-.211.14-.281.351-.491.491-.07.07-.491.421-.562.281-.07.07-.07.14-.14.211s-.07,0-.14.07C20.264,25.88,19.843,25.95,19.843,26.161ZM3.416,15.069c.07,0,.211-.07.281-.07h.351c.07,0,.14,0,.14-.07h.14c.211,0,.351.14.562.07.14-.07.211-.07.351-.14h.14c.14,0,.211.07.351,0,.281-.07.491.14.772.07a2.88,2.88,0,0,1,.772-.07c.14,0,.281-.07.351,0,.281-.14.562,0,.913-.07a4.918,4.918,0,0,1,.983-.211c.14,0,.281-.07.491-.07a.944.944,0,0,0,.632-.14c.14,0,.211-.07.351-.07a.89.89,0,0,0,.421-.07h.07c.14.07.281,0,.491.07h.562c.14,0,.211-.07.281,0a2.494,2.494,0,0,1,.7-.14c.07,0,.281-.07.351-.07a.7.7,0,0,1,.772.562v.281c-.07.14-.211.421-.351.421-.07,0-.14.07-.211.14a.736.736,0,0,1-.281.211c-.281.07-.421.281-.7.351s-.421.351-.7.491c-.211.14-.421.211-.491.421s-.351.281-.562.421L11,17.737c-.14.07-.281.211-.421.281a4.193,4.193,0,0,1-.772.421,1.531,1.531,0,0,1-.351.281H9.243c-.14.07-.351.281-.491.351a2.337,2.337,0,0,1-.7.421c-.351.211-.632.491-.913.632l-.421.211c-.07.07-.07.14-.211.14-.211,0-.351.211-.562.351-.14.07-.211.07-.281.14a1.469,1.469,0,0,1-.421.281c-.14.07-.211.211-.351.281.07.211-.14.211-.211.281l-.211.211a.526.526,0,0,1-.351.07c-.14,0-.351.14-.351.281,0,.281.14.421.14.7a.258.258,0,0,0,.07.211c.07.07.14,0,.211.07.07.14.281.211.421.351.07.211.14.491.351.562l.14.07a.069.069,0,0,0,.07.07c0,.07.07.07.14,0a.7.7,0,0,1,.351.281c.14.14.281.14.421.211s.281.211.421.281c.281.14.491.351.772.491a.935.935,0,0,1,.351.211c.14.14.211.211.351.211.281,0,.562.281.842.351a1.389,1.389,0,0,0,.772.14c.14,0,.211.07.351.07.07,0,.07.07.211.07.07-.07.14-.07.14,0,.07,0,.211.07.281.07a.89.89,0,0,0,.421.07,1.2,1.2,0,0,1,.491.07l.07.07h.913a.214.214,0,0,0,.281,0c.14,0,.211.07.281.07a.974.974,0,0,1,.632,0,1.459,1.459,0,0,0,.772-.07h.07a2.524,2.524,0,0,0,.772-.14h.351c.211-.07.421-.07.632-.14.14-.07.351-.07.491-.14a3.041,3.041,0,0,0,.351-.07,7.642,7.642,0,0,0,1.755-.7c.07,0,.14-.07.211-.07.14-.07.281-.281.421-.351s.351-.07.491-.211c.14-.07.211-.281.421-.351.07,0,.351-.211.351-.281.14-.14.351-.211.491-.351a1.232,1.232,0,0,0,.351-.281,3.516,3.516,0,0,1,.562-.491,1.032,1.032,0,0,0,.421-.351c.211-.281.562-.421.7-.7a.969.969,0,0,1,.211-.281l.07-.07c0-.07.07-.211.14-.211.211-.211.281-.491.491-.7a2.06,2.06,0,0,1,.211-.7c.07-.211.07-.351.211-.491,0-.07,0-.07.07-.14V19.7c0-.07,0-.14.07-.14A1.411,1.411,0,0,0,25.038,19v-.07a2.337,2.337,0,0,1,.211-.421v-.14c0-.14.07-.211.07-.351,0-.07.14-.211.14-.281v-.281a.536.536,0,0,1,.14-.351c0-.07.07-.14.07-.211s-.07-.14,0-.281V16.4c.07-.14.07-.421.14-.632v-.632a1.546,1.546,0,0,1,.07-.562V14.3c-.07-.14,0-.211.07-.351v-.983c-.07-.14,0-.281,0-.421a1.3,1.3,0,0,0-.14-.491V11.84c.14-.351-.14-.772-.211-1.193v-.281a3.422,3.422,0,0,0-.211-.491.637.637,0,0,1-.211-.491,2.06,2.06,0,0,0-.211-.7,1.131,1.131,0,0,1-.281-.491,2.856,2.856,0,0,0-.14-.7c-.07-.14-.14-.211-.211-.351-.14-.211-.281-.351-.351-.491s-.211-.211-.281-.351-.07-.211-.14-.281a4.261,4.261,0,0,0-.7-.491.548.548,0,0,1-.281-.281.969.969,0,0,0-.281-.211c-.211-.211-.421-.491-.632-.7a3.243,3.243,0,0,0-.491-.491c-.14-.14-.632-.281-.632-.491s-.351-.211-.491-.281h0a.422.422,0,0,0-.281-.07c-.351-.14-.562-.351-.772-.351l-.14-.07a1.727,1.727,0,0,1-.772-.281,1.354,1.354,0,0,0-.7-.211.89.89,0,0,1-.421-.07A4.837,4.837,0,0,1,16.4,1.8c-.281,0-.562-.07-.842-.07-.14,0-.211-.07-.351-.07-.07,0-.14.07-.281.07a3.04,3.04,0,0,0-.351-.07,2.073,2.073,0,0,1-.913.14c-.211-.07-.281-.07-.421.07a.57.57,0,0,1-.562.281,1.3,1.3,0,0,0-.491.14c-.14,0-.562.14-.7.14s-.281.14-.421.211-.281.07-.351.14a1.3,1.3,0,0,1-.491.14c-.07,0-.211-.07-.211,0-.491.07-.913.562-1.4.772-.14,0-.211.07-.281.07s-.421.14-.421.211a.532.532,0,0,1-.281.14,2.263,2.263,0,0,0-.983.562,1.429,1.429,0,0,1-.421.491c-.07.07-.14.07-.281.211-.211.281-.491.491-.7.772,0,.211-.281.351-.351.491-.14.14-.211.281-.281.351a1.429,1.429,0,0,0-.491.421c-.14.211-.211.562-.351.772s-.562.562-.562.842V9.1c-.07.07-.07.211-.14.281-.07.14-.211.14-.281.281a.633.633,0,0,0-.07.351c-.07.14-.14.211-.14.281,0,.14-.14.211-.14.281a2.934,2.934,0,0,0-.281.7,2.231,2.231,0,0,0-.211.632v.14c-.07.14-.281.211-.211.421v.07A5.848,5.848,0,0,0,1.45,13.6a.633.633,0,0,1-.07.351c0,.14-.14.281-.07.351a1.154,1.154,0,0,0,.14.7c.07.14.07.211.281.14A.536.536,0,0,0,2.082,15c.07-.07.211,0,.281-.07.14,0,.211-.07.351-.07h.211c.14,0,.211.07.351,0,.14,0,.211-.07.281-.07-.211.281-.211.281-.14.281ZM10.3,7.277h.562c.07,0,.14-.07.211-.07a.944.944,0,0,0,.491-.421c.14-.14.351-.281.351-.421,0-.07.14-.211.14-.281V5.662c0-.211-.07-.491-.07-.7a.893.893,0,0,0-.491-.632,1.841,1.841,0,0,0-.632-.351H10.3c-.07,0-.14-.07-.14,0a1.638,1.638,0,0,0-1.4,1.4c-.07.14.07.281,0,.491a.89.89,0,0,0,.07.421.365.365,0,0,1,.14.281c.07.14.07.281.211.351.07.07.351.351.421.351C9.8,7.137,10.085,7.277,10.3,7.277ZM10.085,4.4a1.76,1.76,0,0,0-.491.281,1.032,1.032,0,0,0-.351.421c0,.07-.07.07-.07.14v.14c-.07.14.07.211.07.351V5.8c.14.14.07.421.14.562.07.07.211.281.281.281s.14.211.211.211c0-.07,0,0,.07,0h.14c.14,0,.211.07.351.07h.281c.351-.14-.211-.281-.351-.351a.931.931,0,0,1-.421-.7V5.8a.1.1,0,0,1,0-.14V5.452c0-.07,0-.14.07-.14a.577.577,0,0,1,.421-.281c.14,0,.211-.07.281-.07h.07l.211.07a.258.258,0,0,0,.211.07c.14-.07,0-.14,0-.211V4.82c-.07-.14-.14-.281-.281-.281s-.281-.07-.421-.07h-.14A.531.531,0,0,1,10.085,4.4Z" transform="translate(-0.156 -0.156)" fill-rule="evenodd"/>
      <path id="パス_26" data-name="パス 26" d="M161.633,12.393a2.661,2.661,0,0,1-2.036.913,2.807,2.807,0,0,1-1.825-.7A2.809,2.809,0,0,1,157,10.568,2.536,2.536,0,0,1,159.668,7.9a2.412,2.412,0,0,1,2.527,2.457A2.9,2.9,0,0,1,161.633,12.393ZM159.6,9.164c-.772,0-1.193.562-1.193,1.474,0,1.053.632,1.474,1.264,1.474s1.264-.491,1.193-1.544C160.791,9.725,160.37,9.164,159.6,9.164Z" transform="translate(-46.895 -2.463)"/>
      <path id="パス_27" data-name="パス 27" d="M170.023,13.195h-1.334V10.317a1.781,1.781,0,0,0-.14-.842.742.742,0,0,0-.632-.351,1,1,0,0,0-.421.14c-.562.281-.562.913-.562,1.334v2.6H165.6V8.14h1.264v.491A2.226,2.226,0,0,1,168.338,8a1.527,1.527,0,0,1,.7.14,1.748,1.748,0,0,1,1.053,1.9v3.159Z" transform="translate(-49.457 -2.493)"/>
      <path id="パス_28" data-name="パス 28" d="M176.666,10.093c0,.632,0,.7.07.842.07.281.14.491.7.491h.351V12.62c-.211,0-.491.07-.913.07a2.6,2.6,0,0,1-.983-.14A1.079,1.079,0,0,1,175.4,11.5V8.268h-.7V7.425h.7V5.6h1.264V7.425h1.123v.913h-1.123v1.755Z" transform="translate(-52.169 -1.778)"/>
      <path id="パス_29" data-name="パス 29" d="M184.423,12.36h-1.334V9.482a1.781,1.781,0,0,0-.14-.842.742.742,0,0,0-.632-.351,1,1,0,0,0-.421.14c-.562.281-.562.913-.562,1.334v2.6H180V5.2h1.334V7.727a2.032,2.032,0,0,1,1.4-.632,1.687,1.687,0,0,1,.7.14,1.748,1.748,0,0,1,1.053,1.9V12.36Z" transform="translate(-53.749 -1.659)"/>
      <path id="パス_30" data-name="パス 30" d="M192.054,12.212a2.626,2.626,0,0,1-.632.632,2.756,2.756,0,0,1-1.755.562A2.6,2.6,0,0,1,187,10.668,2.471,2.471,0,0,1,189.527,8a2.421,2.421,0,0,1,1.9.842,3.3,3.3,0,0,1,.632,2.106h-3.721a.944.944,0,0,0,.14.562,1.415,1.415,0,0,0,1.193.7,1.493,1.493,0,0,0,1.193-.632l1.193.632Zm-1.4-2.246a.684.684,0,0,0-.281-.632,1.123,1.123,0,0,0-.772-.281,1.186,1.186,0,0,0-.7.211,1.994,1.994,0,0,0-.421.7Z" transform="translate(-55.835 -2.493)"/>
      <path id="パス_31" data-name="パス 31" d="M165.424,32.886h-1.966l-1.334-6.178-1.334,6.178h-1.9L157,23.9h1.685l1.193,6.037,1.4-6.037h1.755l1.4,6.037L165.7,23.9h1.685Z" transform="translate(-46.895 -7.231)"/>
      <path id="パス_32" data-name="パス 32" d="M179.65,32.886H172.7V23.9h6.669v1.474H174.6v1.755h3.58v1.615H174.6V31.2h5.054Z" transform="translate(-51.573 -7.231)"/>
      <path id="パス_33" data-name="パス 33" d="M187.791,23.9a4.635,4.635,0,0,1,.983.07,2.1,2.1,0,0,1,2.036,2.176,1.768,1.768,0,0,1-.913,1.685c-.14.07-.281.07-.421.14.14.07.351.07.491.14a2.156,2.156,0,0,1,1.334,2.106,2.478,2.478,0,0,1-.211.983c-.632,1.685-2.036,1.685-3.019,1.685H184V23.9Zm-1.9,3.44h1.544a1.8,1.8,0,0,0,1.123-.211.875.875,0,0,0,.491-.842.806.806,0,0,0-.421-.772,1.567,1.567,0,0,0-.983-.211h-1.825V27.34Zm0,1.474v2.527h1.685a2.941,2.941,0,0,0,1.264-.14,1.092,1.092,0,0,0,.632-1.053,2.05,2.05,0,0,0-.14-.632c-.351-.632-1.053-.632-1.685-.7Z" transform="translate(-54.941 -7.231)"/>
      <path id="パス_34" data-name="パス 34" d="M63.388,23.43h6.248V19.569H68.022V13.813H60.3V12.9H55.877v.913H48.155v5.756H46.681V23.43h7.511l.07.421-7.862,2.6,2.317,3.861,9.617-4.282L67.6,30.31l2.527-4-6.809-2.457Zm-7.511-3.861H52.016v-1.9h3.861Zm4.423-1.9h4v1.9h-4Z" transform="translate(-13.936 -3.953)"/>
      <path id="パス_35" data-name="パス 35" d="M125.831,20.476l.351,1.615-2.668.421V19.493h6.739V6.015h-3.37V4.4H122.6V6.015h-2.948V23.073l-1.053.211.632,4.072,7.862-1.615.281,1.123,3.65-.421-1.615-6.178-3.58.211ZM123.584,9.454h2.738v1.334h-2.738S123.584,9.454,123.584,9.454Zm0,4.844h2.738v1.474h-2.738S123.584,14.3,123.584,14.3Z" transform="translate(-35.452 -1.42)"/>
      <path id="パス_36" data-name="パス 36" d="M50.7,10.216h4.142V9.3h6.6v.913h4.142V9.3h4.142V5.583H65.584V4.6H61.442v.983h-6.6V4.6H50.7v.983h-4V9.3h4Z" transform="translate(-14.026 -1.48)"/>
      <path id="パス_37" data-name="パス 37" d="M109.46,9.784h.632V5.923h-3.37V4.8h-3.931V5.853H99.14V9.784h.983l.421,2.808H99v3.931h3.861V18.7H99.07v3.931h3.791v4.844h3.861V22.631h3.791V18.7h-3.791V16.523h3.791V12.662h-1.685Zm-3.58,0-.632,2.808h-1.264l-.491-2.808Z" transform="translate(-29.611 -1.54)"/>
      <path id="パス_38" data-name="パス 38" d="M90.511,8.761,92.9,8.55,92.688,4.9l-9.547.842.281,3.721,3.089-.281v1.9H83v3.931h3.51v2.106H83.7v9.968h9.337V17.115H90.582V15.009h2.738V11.078H90.582V8.761ZM89.458,23.152H87.212V20.835h2.246Z" transform="translate(-24.843 -1.569)"/>
      <path id="パス_39" data-name="パス 39" d="M146.435,14.426l.983-4.633V5.3H137.8V27.413h3.931v-2.6h5.756V19.34Zm-2.176,5.9H141.8V9.231h2.387l-1.193,5.335Z" transform="translate(-41.173 -1.689)"/>
      <circle id="楕円形_1" data-name="楕円形 1" cx="0.983" cy="0.983" r="0.983" transform="translate(110.035 12.667)" fill="#961e23"/>
      <circle id="楕円形_2" data-name="楕円形 2" cx="0.983" cy="0.983" r="0.983" transform="translate(114.107 12.667)" fill="#961e23"/>
      <circle id="楕円形_3" data-name="楕円形 3" cx="0.983" cy="0.983" r="0.983" transform="translate(118.178 12.667)" fill="#961e23"/>
      <circle id="楕円形_4" data-name="楕円形 4" cx="0.983" cy="0.983" r="0.983" transform="translate(122.25 12.667)" fill="#961e23"/>
      <circle id="楕円形_5" data-name="楕円形 5" cx="0.983" cy="0.983" r="0.983" transform="translate(126.322 12.667)" fill="#961e23"/>
      <circle id="楕円形_6" data-name="楕円形 6" cx="0.983" cy="0.983" r="0.983" transform="translate(130.323 12.667)" fill="#961e23"/>
      <circle id="楕円形_7" data-name="楕円形 7" cx="0.983" cy="0.983" r="0.983" transform="translate(134.395 12.667)" fill="#961e23"/>
    </g>
  </g>
</svg>
