<svg xmlns="http://www.w3.org/2000/svg" viewBox="0 0 486.65 760.41"><defs><style>.cls-1{fill:#d6d6d6;}.cls-2{fill:#c0bfbe;}.cls-3{fill:#fff;}.cls-4{fill:#b7b7b8;}</style></defs><title>word_icon</title><g id="レイヤー_2" data-name="レイヤー 2"><g id="レイヤー_1-2" data-name="レイヤー 1"><path class="cls-1" d="M165.65,731.09,62.35,273.46c-3.89-15.41-16.73-68.35-1.9-72.09L326.82,134.1c14.84-3.74,30,5.71,33.9,21.12l125,495.05c3.89,15.41-5,30.93-19.81,34.68L200.33,730.82C185.5,734.57,169.54,746.5,165.65,731.09Z"/><path class="cls-2" d="M71.35,733.88,23.22,244.59c-2.06-16.52-8.6-73.22,7.93-75.29l296.78-37.11a30.17,30.17,0,0,1,33.67,26.18L428,689.3A30.17,30.17,0,0,1,401.79,723l-293,14.93C92.29,740,73.41,750.41,71.35,733.88Z"/><path class="cls-3" d="M314.21,450q0,122.67,0,245.35c0,21-2.05,23.09-22.15,23.11q-112.83.07-225.67-.05c-18.63,0-21.94-3.38-22-22.15-.06-140.35-.93-280.71.71-421,.33-28-3.9-56.15,1-84.34C48.28,178.71,56,178.71,64,176.53c9-2.46,12.52,3.08,15.8,10.11,11.82,25.4,26.92,48.36,50.43,64.7,9.22,6.42,12.57,17.68,21.49,24.77,18.35,14.58,47.27,12.34,63.59-6.26,16.17-18.42,14.67-48.57-3.18-64.12-19-16.55-42.23-18.65-59.91-2.48-11.33,10.37-16.54,6.73-22.71-3.76-3.68-6.26-12.42-11.46-8.15-19.55,3.91-7.39,13-4.29,19.57-3.72,49.89,4.31,99.85.6,149.77,1.79,21.3.51,23.41,2.22,23.43,23.6q.11,124.18,0,248.38Z"/><rect class="cls-4" x="-134.79" y="266.22" width="628.99" height="359.4" rx="30.15" transform="translate(625.62 266.22) rotate(90)"/><rect class="cls-3" x="-89.9" y="306.05" width="543.31" height="280.94" rx="30.15" transform="translate(628.28 264.77) rotate(90)"/><circle class="cls-4" cx="182.02" cy="241.28" r="45.39"/><path class="cls-4" d="M264.24,141.54c-5.16-8.12,8.82-1.16,9-1.69.67-1.94-6.26-15.34-6.93-17.29C251.19,78.21,223.73,5.33,168.31.28,120.58-4.08,93.1,43.72,84.7,84.05c-10.35,49.7,10.52,108.76,42.47,147.19,4.66,5.61,43,47,51.47,46,0,0,20.83-33.23,20.84-33.23-3.26.38-34.32-19.64-36.8-23.53-7.89-12.36-14-25.16-19.68-38.64-7.73-18.32-23.48-43-23.48-63.4,0-16.24.63-32.76,5.41-48.4,6.39-20.88,25.73-43.18,50-31.86,7.5,3.49,13.51,9.51,18.74,15.92,22.7,27.81,32.8,63.53,42.34,98.14,9-6.5,19.18-2,28.22-8.46C265.35,143,269,149.12,264.24,141.54Z"/><circle class="cls-4" cx="177.66" cy="578.33" r="95.63"/><rect class="cls-3" x="131.11" y="569.56" width="93.1" height="17.54" rx="8.77" transform="translate(755.99 400.67) rotate(90)"/><rect class="cls-3" x="131.11" y="569.56" width="93.1" height="17.54" rx="8.77" transform="translate(355.32 1156.65) rotate(180)"/></g></g></svg>